%TF.GenerationSoftware,KiCad,Pcbnew,9.0.0*%
%TF.CreationDate,2025-03-16T17:44:06+09:00*%
%TF.ProjectId,imx219_mipi24,696d7832-3139-45f6-9d69-706932342e6b,rev?*%
%TF.SameCoordinates,Original*%
%TF.FileFunction,Copper,L2,Inr*%
%TF.FilePolarity,Positive*%
%FSLAX46Y46*%
G04 Gerber Fmt 4.6, Leading zero omitted, Abs format (unit mm)*
G04 Created by KiCad (PCBNEW 9.0.0) date 2025-03-16 17:44:06*
%MOMM*%
%LPD*%
G01*
G04 APERTURE LIST*
%TA.AperFunction,ViaPad*%
%ADD10C,0.600000*%
%TD*%
%TA.AperFunction,Conductor*%
%ADD11C,0.254000*%
%TD*%
%TA.AperFunction,Conductor*%
%ADD12C,0.152400*%
%TD*%
G04 APERTURE END LIST*
D10*
%TO.N,+2V8*%
X149300000Y-90300000D03*
X156000000Y-92000000D03*
%TO.N,GND*%
X152800000Y-108000000D03*
X154200000Y-108000000D03*
X148600000Y-108600000D03*
X140400000Y-100100000D03*
X153500000Y-100600000D03*
X161100000Y-94600000D03*
X155800000Y-108000000D03*
X156200000Y-102900000D03*
X139900000Y-109400000D03*
X143400000Y-107000000D03*
X145400000Y-101700000D03*
X153200000Y-96300000D03*
X139300000Y-94100000D03*
X149800000Y-108600000D03*
X160100000Y-109500000D03*
X151400000Y-108600000D03*
X141500000Y-92300000D03*
X157100000Y-92800000D03*
X148200000Y-90200000D03*
X158200000Y-97000000D03*
X150900000Y-111300000D03*
X147600000Y-93000000D03*
X147800000Y-104100000D03*
X151200000Y-93000000D03*
X145200000Y-111400000D03*
X144600000Y-108400000D03*
X156500000Y-89300000D03*
X145200000Y-89200000D03*
X144000000Y-97437500D03*
X155600000Y-96200000D03*
%TO.N,+1V8*%
X146950000Y-90250000D03*
%TO.N,+1V2*%
X146900000Y-91950000D03*
%TO.N,/CAM_CN*%
X152350800Y-104000000D03*
%TO.N,/CAM_CP*%
X151649200Y-104000000D03*
%TO.N,/CAM_DP0*%
X153149200Y-104000000D03*
%TO.N,/CAM_DN0*%
X153850800Y-104000000D03*
%TO.N,/CAM_DN1*%
X155350800Y-104000000D03*
%TO.N,/CAM_DP1*%
X154649200Y-104000000D03*
%TO.N,/CAM_DN2*%
X151050800Y-95200000D03*
%TO.N,/CAM_DP2*%
X150349200Y-95200000D03*
%TO.N,/CAM_DP3*%
X151349200Y-100358700D03*
%TO.N,/CAM_DN3*%
X152050800Y-100358700D03*
%TO.N,/CAM_CLK*%
X148150000Y-92050000D03*
%TO.N,/CAM_RST*%
X141000000Y-104900000D03*
X140750000Y-95500000D03*
X157600000Y-99600000D03*
X147000000Y-109400000D03*
%TO.N,/CAM_SDA*%
X145600000Y-94800000D03*
%TO.N,/CAM_SCL*%
X146200000Y-95400000D03*
%TD*%
D11*
%TO.N,GND*%
X145300000Y-111300000D02*
X145200000Y-111400000D01*
D12*
X155600000Y-96200000D02*
X153500000Y-98300000D01*
D11*
X156200000Y-107600000D02*
X156200000Y-102900000D01*
D12*
X156400000Y-97000000D02*
X155600000Y-96200000D01*
D11*
X155800000Y-108000000D02*
X152500000Y-111300000D01*
X155800000Y-108000000D02*
X157300000Y-109500000D01*
X140900000Y-108400000D02*
X139900000Y-109400000D01*
D12*
X153500000Y-98300000D02*
X153500000Y-100600000D01*
D11*
X147800000Y-104100000D02*
X145400000Y-101700000D01*
X140400000Y-100100000D02*
X139300000Y-99000000D01*
D12*
X155500000Y-96300000D02*
X153200000Y-96300000D01*
D11*
X150900000Y-111300000D02*
X145300000Y-111300000D01*
X157300000Y-109500000D02*
X160100000Y-109500000D01*
X142000000Y-101700000D02*
X140400000Y-100100000D01*
X145400000Y-101700000D02*
X142000000Y-101700000D01*
X139300000Y-94100000D02*
X141100000Y-92300000D01*
X152500000Y-111300000D02*
X150900000Y-111300000D01*
X148600000Y-104900000D02*
X147800000Y-104100000D01*
X148600000Y-108600000D02*
X148600000Y-104900000D01*
X139300000Y-99000000D02*
X139300000Y-94100000D01*
D12*
X161100000Y-94600000D02*
X158700000Y-97000000D01*
X158700000Y-97000000D02*
X158200000Y-97000000D01*
D11*
X155800000Y-108000000D02*
X156200000Y-107600000D01*
X141100000Y-92300000D02*
X141500000Y-92300000D01*
D12*
X158200000Y-97000000D02*
X156400000Y-97000000D01*
X155600000Y-96200000D02*
X155500000Y-96300000D01*
D11*
X144600000Y-108400000D02*
X140900000Y-108400000D01*
%TD*%
%TA.AperFunction,Conductor*%
%TO.N,GND*%
G36*
X156721973Y-87788718D02*
G01*
X156770274Y-87806410D01*
X156775048Y-87810798D01*
X158477529Y-89516757D01*
X158499220Y-89563398D01*
X158499500Y-89569876D01*
X158499500Y-89631120D01*
X158533730Y-89891116D01*
X158596448Y-90125185D01*
X158601603Y-90144421D01*
X158601603Y-90144422D01*
X158701957Y-90386698D01*
X158833077Y-90613805D01*
X158877759Y-90672035D01*
X158992718Y-90821851D01*
X158992723Y-90821856D01*
X158992730Y-90821864D01*
X159178135Y-91007269D01*
X159178143Y-91007276D01*
X159178149Y-91007282D01*
X159386197Y-91166924D01*
X159613303Y-91298043D01*
X159855581Y-91398398D01*
X160108884Y-91466270D01*
X160368880Y-91500500D01*
X160368883Y-91500500D01*
X160426034Y-91500500D01*
X160474372Y-91518093D01*
X160479263Y-91522580D01*
X162228029Y-93274918D01*
X162249720Y-93321560D01*
X162250000Y-93328038D01*
X162250000Y-101272932D01*
X162232407Y-101321270D01*
X162187858Y-101346990D01*
X162137200Y-101338057D01*
X162115140Y-101318711D01*
X162080012Y-101272932D01*
X162007282Y-101178149D01*
X162007276Y-101178143D01*
X162007269Y-101178135D01*
X161821864Y-100992730D01*
X161821856Y-100992723D01*
X161821851Y-100992718D01*
X161746753Y-100935093D01*
X161613805Y-100833077D01*
X161386698Y-100701957D01*
X161144422Y-100601603D01*
X161144420Y-100601602D01*
X161144419Y-100601602D01*
X160891116Y-100533730D01*
X160631120Y-100499500D01*
X160368880Y-100499500D01*
X160108884Y-100533730D01*
X160108880Y-100533731D01*
X160108879Y-100533731D01*
X159948294Y-100576759D01*
X159855581Y-100601602D01*
X159855579Y-100601602D01*
X159855578Y-100601603D01*
X159855577Y-100601603D01*
X159613301Y-100701957D01*
X159386194Y-100833077D01*
X159178151Y-100992716D01*
X159178135Y-100992730D01*
X158992730Y-101178135D01*
X158992716Y-101178151D01*
X158833077Y-101386194D01*
X158701957Y-101613301D01*
X158601603Y-101855577D01*
X158601603Y-101855578D01*
X158601602Y-101855581D01*
X158533730Y-102108884D01*
X158499500Y-102368880D01*
X158499500Y-102631120D01*
X158533730Y-102891116D01*
X158533731Y-102891119D01*
X158533731Y-102891120D01*
X158601603Y-103144421D01*
X158601603Y-103144422D01*
X158701957Y-103386698D01*
X158833077Y-103613805D01*
X158916032Y-103721913D01*
X158992718Y-103821851D01*
X158992723Y-103821856D01*
X158992730Y-103821864D01*
X159178135Y-104007269D01*
X159178143Y-104007276D01*
X159178149Y-104007282D01*
X159386197Y-104166924D01*
X159613303Y-104298043D01*
X159855581Y-104398398D01*
X160108884Y-104466270D01*
X160368880Y-104500500D01*
X160368883Y-104500500D01*
X160631117Y-104500500D01*
X160631120Y-104500500D01*
X160891116Y-104466270D01*
X161144419Y-104398398D01*
X161386697Y-104298043D01*
X161613803Y-104166924D01*
X161821851Y-104007282D01*
X162007282Y-103821851D01*
X162115141Y-103681287D01*
X162158524Y-103653649D01*
X162209524Y-103660364D01*
X162244276Y-103698289D01*
X162250000Y-103727067D01*
X162250000Y-110898934D01*
X162248555Y-110913606D01*
X162239145Y-110960910D01*
X162236599Y-110970411D01*
X162220142Y-111018890D01*
X162202107Y-111047891D01*
X161047891Y-112202107D01*
X161018890Y-112220142D01*
X160970411Y-112236599D01*
X160960910Y-112239145D01*
X160924600Y-112246368D01*
X160913604Y-112248555D01*
X160898935Y-112250000D01*
X139531148Y-112250000D01*
X139482810Y-112232407D01*
X139477974Y-112227974D01*
X137772026Y-110522026D01*
X137750286Y-110475406D01*
X137750000Y-110468852D01*
X137750000Y-109340375D01*
X146547100Y-109340375D01*
X146547100Y-109459625D01*
X146577964Y-109574813D01*
X146577964Y-109574814D01*
X146637589Y-109678087D01*
X146721912Y-109762410D01*
X146781538Y-109796834D01*
X146825187Y-109822036D01*
X146940375Y-109852900D01*
X146940378Y-109852900D01*
X147059622Y-109852900D01*
X147059625Y-109852900D01*
X147174813Y-109822036D01*
X147278087Y-109762410D01*
X147362410Y-109678087D01*
X147422036Y-109574813D01*
X147452900Y-109459625D01*
X147452900Y-109340375D01*
X147422036Y-109225187D01*
X147422035Y-109225185D01*
X147362410Y-109121912D01*
X147278087Y-109037589D01*
X147174813Y-108977964D01*
X147059625Y-108947100D01*
X146940375Y-108947100D01*
X146853984Y-108970248D01*
X146825186Y-108977964D01*
X146825185Y-108977964D01*
X146721912Y-109037589D01*
X146637589Y-109121912D01*
X146577964Y-109225185D01*
X146577964Y-109225186D01*
X146577964Y-109225187D01*
X146547100Y-109340375D01*
X137750000Y-109340375D01*
X137750000Y-104840375D01*
X140547100Y-104840375D01*
X140547100Y-104959625D01*
X140577964Y-105074813D01*
X140577964Y-105074814D01*
X140637589Y-105178087D01*
X140721912Y-105262410D01*
X140781538Y-105296834D01*
X140825187Y-105322036D01*
X140940375Y-105352900D01*
X140940378Y-105352900D01*
X141059622Y-105352900D01*
X141059625Y-105352900D01*
X141174813Y-105322036D01*
X141278087Y-105262410D01*
X141362410Y-105178087D01*
X141422036Y-105074813D01*
X141452900Y-104959625D01*
X141452900Y-104840375D01*
X141422036Y-104725187D01*
X141422035Y-104725185D01*
X141362410Y-104621912D01*
X141278087Y-104537589D01*
X141174813Y-104477964D01*
X141059625Y-104447100D01*
X140940375Y-104447100D01*
X140853984Y-104470248D01*
X140825186Y-104477964D01*
X140825185Y-104477964D01*
X140721912Y-104537589D01*
X140637589Y-104621912D01*
X140577964Y-104725185D01*
X140577964Y-104725186D01*
X140577964Y-104725187D01*
X140547100Y-104840375D01*
X137750000Y-104840375D01*
X137750000Y-103727067D01*
X137767593Y-103678729D01*
X137812142Y-103653009D01*
X137862800Y-103661942D01*
X137884858Y-103681286D01*
X137943939Y-103758282D01*
X137992716Y-103821849D01*
X137992730Y-103821864D01*
X138178135Y-104007269D01*
X138178143Y-104007276D01*
X138178149Y-104007282D01*
X138386197Y-104166924D01*
X138613303Y-104298043D01*
X138855581Y-104398398D01*
X139108884Y-104466270D01*
X139368880Y-104500500D01*
X139368883Y-104500500D01*
X139631117Y-104500500D01*
X139631120Y-104500500D01*
X139891116Y-104466270D01*
X140144419Y-104398398D01*
X140386697Y-104298043D01*
X140613803Y-104166924D01*
X140821851Y-104007282D01*
X140821864Y-104007269D01*
X140888759Y-103940375D01*
X151196300Y-103940375D01*
X151196300Y-104059625D01*
X151225050Y-104166922D01*
X151227164Y-104174813D01*
X151227164Y-104174814D01*
X151286789Y-104278087D01*
X151371112Y-104362410D01*
X151430738Y-104396834D01*
X151474387Y-104422036D01*
X151589575Y-104452900D01*
X151589578Y-104452900D01*
X151708822Y-104452900D01*
X151708825Y-104452900D01*
X151824013Y-104422036D01*
X151927287Y-104362410D01*
X151946825Y-104342871D01*
X151993444Y-104321131D01*
X152043132Y-104334444D01*
X152053169Y-104342866D01*
X152072713Y-104362410D01*
X152175987Y-104422036D01*
X152291175Y-104452900D01*
X152291178Y-104452900D01*
X152410422Y-104452900D01*
X152410425Y-104452900D01*
X152525613Y-104422036D01*
X152628887Y-104362410D01*
X152656853Y-104334444D01*
X152696826Y-104294472D01*
X152743446Y-104272732D01*
X152793133Y-104286046D01*
X152803174Y-104294472D01*
X152871112Y-104362410D01*
X152930738Y-104396834D01*
X152974387Y-104422036D01*
X153089575Y-104452900D01*
X153089578Y-104452900D01*
X153208822Y-104452900D01*
X153208825Y-104452900D01*
X153324013Y-104422036D01*
X153427287Y-104362410D01*
X153446825Y-104342871D01*
X153493444Y-104321131D01*
X153543132Y-104334444D01*
X153553169Y-104342866D01*
X153572713Y-104362410D01*
X153675987Y-104422036D01*
X153791175Y-104452900D01*
X153791178Y-104452900D01*
X153910422Y-104452900D01*
X153910425Y-104452900D01*
X154025613Y-104422036D01*
X154128887Y-104362410D01*
X154156853Y-104334444D01*
X154196826Y-104294472D01*
X154243446Y-104272732D01*
X154293133Y-104286046D01*
X154303174Y-104294472D01*
X154371112Y-104362410D01*
X154430738Y-104396834D01*
X154474387Y-104422036D01*
X154589575Y-104452900D01*
X154589578Y-104452900D01*
X154708822Y-104452900D01*
X154708825Y-104452900D01*
X154824013Y-104422036D01*
X154927287Y-104362410D01*
X154946825Y-104342871D01*
X154993444Y-104321131D01*
X155043132Y-104334444D01*
X155053169Y-104342866D01*
X155072713Y-104362410D01*
X155175987Y-104422036D01*
X155291175Y-104452900D01*
X155291178Y-104452900D01*
X155410422Y-104452900D01*
X155410425Y-104452900D01*
X155525613Y-104422036D01*
X155628887Y-104362410D01*
X155713210Y-104278087D01*
X155772836Y-104174813D01*
X155803700Y-104059625D01*
X155803700Y-103940375D01*
X155772836Y-103825187D01*
X155772835Y-103825185D01*
X155713210Y-103721912D01*
X155628887Y-103637589D01*
X155525613Y-103577964D01*
X155410425Y-103547100D01*
X155291175Y-103547100D01*
X155204784Y-103570248D01*
X155175986Y-103577964D01*
X155175985Y-103577964D01*
X155072712Y-103637589D01*
X155053174Y-103657128D01*
X155006554Y-103678868D01*
X154956867Y-103665554D01*
X154946826Y-103657128D01*
X154927287Y-103637589D01*
X154824013Y-103577964D01*
X154708825Y-103547100D01*
X154589575Y-103547100D01*
X154503184Y-103570248D01*
X154474386Y-103577964D01*
X154474385Y-103577964D01*
X154371112Y-103637589D01*
X154303174Y-103705528D01*
X154256554Y-103727268D01*
X154206867Y-103713954D01*
X154196826Y-103705528D01*
X154128887Y-103637589D01*
X154025613Y-103577964D01*
X153910425Y-103547100D01*
X153791175Y-103547100D01*
X153704784Y-103570248D01*
X153675986Y-103577964D01*
X153675985Y-103577964D01*
X153572712Y-103637589D01*
X153553174Y-103657128D01*
X153506554Y-103678868D01*
X153456867Y-103665554D01*
X153446826Y-103657128D01*
X153427287Y-103637589D01*
X153324013Y-103577964D01*
X153208825Y-103547100D01*
X153089575Y-103547100D01*
X153003184Y-103570248D01*
X152974386Y-103577964D01*
X152974385Y-103577964D01*
X152871112Y-103637589D01*
X152803174Y-103705528D01*
X152756554Y-103727268D01*
X152706867Y-103713954D01*
X152696826Y-103705528D01*
X152628887Y-103637589D01*
X152525613Y-103577964D01*
X152410425Y-103547100D01*
X152291175Y-103547100D01*
X152204784Y-103570248D01*
X152175986Y-103577964D01*
X152175985Y-103577964D01*
X152072712Y-103637589D01*
X152053174Y-103657128D01*
X152006554Y-103678868D01*
X151956867Y-103665554D01*
X151946826Y-103657128D01*
X151927287Y-103637589D01*
X151824013Y-103577964D01*
X151708825Y-103547100D01*
X151589575Y-103547100D01*
X151503184Y-103570248D01*
X151474386Y-103577964D01*
X151474385Y-103577964D01*
X151371112Y-103637589D01*
X151286789Y-103721912D01*
X151227164Y-103825185D01*
X151227164Y-103825186D01*
X151227164Y-103825187D01*
X151196300Y-103940375D01*
X140888759Y-103940375D01*
X140946862Y-103882272D01*
X141007269Y-103821864D01*
X141007282Y-103821851D01*
X141166924Y-103613803D01*
X141298043Y-103386697D01*
X141398398Y-103144419D01*
X141466270Y-102891116D01*
X141500500Y-102631120D01*
X141500500Y-102368880D01*
X141466270Y-102108884D01*
X141398398Y-101855581D01*
X141298043Y-101613303D01*
X141166924Y-101386197D01*
X141131195Y-101339635D01*
X141080012Y-101272932D01*
X141007282Y-101178149D01*
X141007276Y-101178143D01*
X141007269Y-101178135D01*
X140821864Y-100992730D01*
X140821856Y-100992723D01*
X140821851Y-100992718D01*
X140746753Y-100935093D01*
X140613805Y-100833077D01*
X140386698Y-100701957D01*
X140144422Y-100601603D01*
X140144420Y-100601602D01*
X140144419Y-100601602D01*
X139891116Y-100533730D01*
X139631120Y-100499500D01*
X139368880Y-100499500D01*
X139108884Y-100533730D01*
X139108880Y-100533731D01*
X139108879Y-100533731D01*
X138948294Y-100576759D01*
X138855581Y-100601602D01*
X138855579Y-100601602D01*
X138855578Y-100601603D01*
X138855577Y-100601603D01*
X138613301Y-100701957D01*
X138386194Y-100833077D01*
X138178151Y-100992716D01*
X138178135Y-100992730D01*
X137992730Y-101178135D01*
X137992716Y-101178151D01*
X137884860Y-101318711D01*
X137841476Y-101346350D01*
X137790476Y-101339635D01*
X137755724Y-101301709D01*
X137750000Y-101272932D01*
X137750000Y-100299075D01*
X150896300Y-100299075D01*
X150896300Y-100418325D01*
X150927164Y-100533513D01*
X150927164Y-100533514D01*
X150986789Y-100636787D01*
X151071112Y-100721110D01*
X151130738Y-100755534D01*
X151174387Y-100780736D01*
X151289575Y-100811600D01*
X151289578Y-100811600D01*
X151408822Y-100811600D01*
X151408825Y-100811600D01*
X151524013Y-100780736D01*
X151627287Y-100721110D01*
X151646825Y-100701571D01*
X151693444Y-100679831D01*
X151743132Y-100693144D01*
X151753169Y-100701566D01*
X151772713Y-100721110D01*
X151875987Y-100780736D01*
X151991175Y-100811600D01*
X151991178Y-100811600D01*
X152110422Y-100811600D01*
X152110425Y-100811600D01*
X152225613Y-100780736D01*
X152328887Y-100721110D01*
X152413210Y-100636787D01*
X152472836Y-100533513D01*
X152503700Y-100418325D01*
X152503700Y-100299075D01*
X152472836Y-100183887D01*
X152472835Y-100183885D01*
X152413210Y-100080612D01*
X152328887Y-99996289D01*
X152225613Y-99936664D01*
X152110425Y-99905800D01*
X151991175Y-99905800D01*
X151904784Y-99928948D01*
X151875986Y-99936664D01*
X151875985Y-99936664D01*
X151772712Y-99996289D01*
X151753174Y-100015828D01*
X151706554Y-100037568D01*
X151656867Y-100024254D01*
X151646826Y-100015828D01*
X151627287Y-99996289D01*
X151524013Y-99936664D01*
X151408825Y-99905800D01*
X151289575Y-99905800D01*
X151203184Y-99928948D01*
X151174386Y-99936664D01*
X151174385Y-99936664D01*
X151071112Y-99996289D01*
X150986789Y-100080612D01*
X150927164Y-100183885D01*
X150927164Y-100183886D01*
X150927164Y-100183887D01*
X150896300Y-100299075D01*
X137750000Y-100299075D01*
X137750000Y-99540375D01*
X157147100Y-99540375D01*
X157147100Y-99659625D01*
X157177964Y-99774813D01*
X157177964Y-99774814D01*
X157237589Y-99878087D01*
X157321912Y-99962410D01*
X157380592Y-99996289D01*
X157425187Y-100022036D01*
X157540375Y-100052900D01*
X157540378Y-100052900D01*
X157659622Y-100052900D01*
X157659625Y-100052900D01*
X157774813Y-100022036D01*
X157878087Y-99962410D01*
X157962410Y-99878087D01*
X158022036Y-99774813D01*
X158052900Y-99659625D01*
X158052900Y-99540375D01*
X158022036Y-99425187D01*
X158022035Y-99425185D01*
X157962410Y-99321912D01*
X157878087Y-99237589D01*
X157774813Y-99177964D01*
X157659625Y-99147100D01*
X157540375Y-99147100D01*
X157453984Y-99170248D01*
X157425186Y-99177964D01*
X157425185Y-99177964D01*
X157321912Y-99237589D01*
X157237589Y-99321912D01*
X157177964Y-99425185D01*
X157177964Y-99425186D01*
X157177964Y-99425187D01*
X157147100Y-99540375D01*
X137750000Y-99540375D01*
X137750000Y-95440375D01*
X140297100Y-95440375D01*
X140297100Y-95559625D01*
X140313823Y-95622036D01*
X140327964Y-95674813D01*
X140327964Y-95674814D01*
X140387589Y-95778087D01*
X140471912Y-95862410D01*
X140531538Y-95896834D01*
X140575187Y-95922036D01*
X140690375Y-95952900D01*
X140690378Y-95952900D01*
X140809622Y-95952900D01*
X140809625Y-95952900D01*
X140924813Y-95922036D01*
X141028087Y-95862410D01*
X141112410Y-95778087D01*
X141172036Y-95674813D01*
X141202900Y-95559625D01*
X141202900Y-95440375D01*
X141172036Y-95325187D01*
X141136453Y-95263556D01*
X141112410Y-95221912D01*
X141028087Y-95137589D01*
X140924813Y-95077964D01*
X140809625Y-95047100D01*
X140690375Y-95047100D01*
X140603984Y-95070248D01*
X140575186Y-95077964D01*
X140575185Y-95077964D01*
X140471912Y-95137589D01*
X140387589Y-95221912D01*
X140327964Y-95325185D01*
X140327964Y-95325186D01*
X140317676Y-95363583D01*
X140297100Y-95440375D01*
X137750000Y-95440375D01*
X137750000Y-94740375D01*
X145147100Y-94740375D01*
X145147100Y-94859625D01*
X145170665Y-94947571D01*
X145177964Y-94974813D01*
X145177964Y-94974814D01*
X145237589Y-95078087D01*
X145321912Y-95162410D01*
X145381538Y-95196834D01*
X145425187Y-95222036D01*
X145540375Y-95252900D01*
X145540378Y-95252900D01*
X145659622Y-95252900D01*
X145659625Y-95252900D01*
X145659627Y-95252899D01*
X145663188Y-95252430D01*
X145713410Y-95263556D01*
X145744730Y-95304362D01*
X145747571Y-95336801D01*
X145747100Y-95340372D01*
X145747100Y-95340375D01*
X145747100Y-95459625D01*
X145774641Y-95562410D01*
X145777964Y-95574813D01*
X145777964Y-95574814D01*
X145837589Y-95678087D01*
X145921912Y-95762410D01*
X145981538Y-95796834D01*
X146025187Y-95822036D01*
X146140375Y-95852900D01*
X146140378Y-95852900D01*
X146259622Y-95852900D01*
X146259625Y-95852900D01*
X146374813Y-95822036D01*
X146478087Y-95762410D01*
X146562410Y-95678087D01*
X146622036Y-95574813D01*
X146652900Y-95459625D01*
X146652900Y-95340375D01*
X146622036Y-95225187D01*
X146585791Y-95162410D01*
X146573069Y-95140375D01*
X149896300Y-95140375D01*
X149896300Y-95259625D01*
X149927164Y-95374813D01*
X149927164Y-95374814D01*
X149986789Y-95478087D01*
X150071112Y-95562410D01*
X150130738Y-95596834D01*
X150174387Y-95622036D01*
X150289575Y-95652900D01*
X150289578Y-95652900D01*
X150408822Y-95652900D01*
X150408825Y-95652900D01*
X150524013Y-95622036D01*
X150627287Y-95562410D01*
X150646825Y-95542871D01*
X150693444Y-95521131D01*
X150743132Y-95534444D01*
X150753169Y-95542866D01*
X150772713Y-95562410D01*
X150875987Y-95622036D01*
X150991175Y-95652900D01*
X150991178Y-95652900D01*
X151110422Y-95652900D01*
X151110425Y-95652900D01*
X151225613Y-95622036D01*
X151328887Y-95562410D01*
X151413210Y-95478087D01*
X151472836Y-95374813D01*
X151503700Y-95259625D01*
X151503700Y-95140375D01*
X151472836Y-95025187D01*
X151472835Y-95025185D01*
X151413210Y-94921912D01*
X151328887Y-94837589D01*
X151225613Y-94777964D01*
X151110425Y-94747100D01*
X150991175Y-94747100D01*
X150904784Y-94770248D01*
X150875986Y-94777964D01*
X150875985Y-94777964D01*
X150772712Y-94837589D01*
X150753174Y-94857128D01*
X150706554Y-94878868D01*
X150656867Y-94865554D01*
X150646826Y-94857128D01*
X150627287Y-94837589D01*
X150524013Y-94777964D01*
X150408825Y-94747100D01*
X150289575Y-94747100D01*
X150203184Y-94770248D01*
X150174386Y-94777964D01*
X150174385Y-94777964D01*
X150071112Y-94837589D01*
X149986789Y-94921912D01*
X149927164Y-95025185D01*
X149927164Y-95025186D01*
X149916876Y-95063583D01*
X149896300Y-95140375D01*
X146573069Y-95140375D01*
X146562410Y-95121912D01*
X146478087Y-95037589D01*
X146374813Y-94977964D01*
X146363053Y-94974813D01*
X146259625Y-94947100D01*
X146140375Y-94947100D01*
X146140372Y-94947100D01*
X146136801Y-94947571D01*
X146086581Y-94936437D01*
X146055266Y-94895628D01*
X146052430Y-94863188D01*
X146052898Y-94859628D01*
X146052900Y-94859625D01*
X146052900Y-94740375D01*
X146022036Y-94625187D01*
X146022035Y-94625185D01*
X145962410Y-94521912D01*
X145878087Y-94437589D01*
X145774813Y-94377964D01*
X145659625Y-94347100D01*
X145540375Y-94347100D01*
X145453984Y-94370248D01*
X145425186Y-94377964D01*
X145425185Y-94377964D01*
X145321912Y-94437589D01*
X145237589Y-94521912D01*
X145177964Y-94625185D01*
X145177964Y-94625186D01*
X145177964Y-94625187D01*
X145147100Y-94740375D01*
X137750000Y-94740375D01*
X137750000Y-93787060D01*
X137767593Y-93738722D01*
X137772080Y-93733831D01*
X138231930Y-93274918D01*
X139619300Y-91890375D01*
X146447100Y-91890375D01*
X146447100Y-92009625D01*
X146477964Y-92124813D01*
X146477964Y-92124814D01*
X146537589Y-92228087D01*
X146621912Y-92312410D01*
X146681538Y-92346834D01*
X146725187Y-92372036D01*
X146840375Y-92402900D01*
X146840378Y-92402900D01*
X146959622Y-92402900D01*
X146959625Y-92402900D01*
X147074813Y-92372036D01*
X147178087Y-92312410D01*
X147262410Y-92228087D01*
X147322036Y-92124813D01*
X147352900Y-92009625D01*
X147352900Y-91990375D01*
X147697100Y-91990375D01*
X147697100Y-92109625D01*
X147714567Y-92174813D01*
X147727964Y-92224813D01*
X147727964Y-92224814D01*
X147787589Y-92328087D01*
X147871912Y-92412410D01*
X147931538Y-92446834D01*
X147975187Y-92472036D01*
X148090375Y-92502900D01*
X148090378Y-92502900D01*
X148209622Y-92502900D01*
X148209625Y-92502900D01*
X148324813Y-92472036D01*
X148428087Y-92412410D01*
X148512410Y-92328087D01*
X148572036Y-92224813D01*
X148602900Y-92109625D01*
X148602900Y-91990375D01*
X148589503Y-91940375D01*
X155547100Y-91940375D01*
X155547100Y-92059625D01*
X155564567Y-92124813D01*
X155577964Y-92174813D01*
X155577964Y-92174814D01*
X155637589Y-92278087D01*
X155721912Y-92362410D01*
X155781538Y-92396834D01*
X155825187Y-92422036D01*
X155940375Y-92452900D01*
X155940378Y-92452900D01*
X156059622Y-92452900D01*
X156059625Y-92452900D01*
X156174813Y-92422036D01*
X156278087Y-92362410D01*
X156362410Y-92278087D01*
X156422036Y-92174813D01*
X156452900Y-92059625D01*
X156452900Y-91940375D01*
X156422036Y-91825187D01*
X156391278Y-91771913D01*
X156362410Y-91721912D01*
X156278087Y-91637589D01*
X156174813Y-91577964D01*
X156059625Y-91547100D01*
X155940375Y-91547100D01*
X155853984Y-91570248D01*
X155825186Y-91577964D01*
X155825185Y-91577964D01*
X155721912Y-91637589D01*
X155637589Y-91721912D01*
X155577964Y-91825185D01*
X155577964Y-91825186D01*
X155577964Y-91825187D01*
X155547100Y-91940375D01*
X148589503Y-91940375D01*
X148572036Y-91875187D01*
X148543167Y-91825185D01*
X148512410Y-91771912D01*
X148428087Y-91687589D01*
X148324813Y-91627964D01*
X148209625Y-91597100D01*
X148090375Y-91597100D01*
X148003984Y-91620248D01*
X147975186Y-91627964D01*
X147975185Y-91627964D01*
X147871912Y-91687589D01*
X147787589Y-91771912D01*
X147727964Y-91875185D01*
X147727964Y-91875186D01*
X147727964Y-91875187D01*
X147697100Y-91990375D01*
X147352900Y-91990375D01*
X147352900Y-91890375D01*
X147322036Y-91775187D01*
X147291278Y-91721913D01*
X147262410Y-91671912D01*
X147178087Y-91587589D01*
X147074813Y-91527964D01*
X147054719Y-91522580D01*
X146959625Y-91497100D01*
X146840375Y-91497100D01*
X146762027Y-91518093D01*
X146725186Y-91527964D01*
X146725185Y-91527964D01*
X146621912Y-91587589D01*
X146537589Y-91671912D01*
X146477964Y-91775185D01*
X146477964Y-91775186D01*
X146477964Y-91775187D01*
X146447100Y-91890375D01*
X139619300Y-91890375D01*
X140086257Y-91424370D01*
X140119914Y-91404964D01*
X140144408Y-91398401D01*
X140144412Y-91398400D01*
X140144412Y-91398399D01*
X140144419Y-91398398D01*
X140386697Y-91298043D01*
X140613803Y-91166924D01*
X140821851Y-91007282D01*
X141007282Y-90821851D01*
X141166924Y-90613803D01*
X141298043Y-90386697D01*
X141379362Y-90190375D01*
X146497100Y-90190375D01*
X146497100Y-90309625D01*
X146527964Y-90424813D01*
X146527964Y-90424814D01*
X146587589Y-90528087D01*
X146671912Y-90612410D01*
X146731538Y-90646834D01*
X146775187Y-90672036D01*
X146890375Y-90702900D01*
X146890378Y-90702900D01*
X147009622Y-90702900D01*
X147009625Y-90702900D01*
X147124813Y-90672036D01*
X147228087Y-90612410D01*
X147312410Y-90528087D01*
X147372036Y-90424813D01*
X147402900Y-90309625D01*
X147402900Y-90240375D01*
X148847100Y-90240375D01*
X148847100Y-90359625D01*
X148864567Y-90424813D01*
X148877964Y-90474813D01*
X148877964Y-90474814D01*
X148937589Y-90578087D01*
X149021912Y-90662410D01*
X149081538Y-90696834D01*
X149125187Y-90722036D01*
X149240375Y-90752900D01*
X149240378Y-90752900D01*
X149359622Y-90752900D01*
X149359625Y-90752900D01*
X149474813Y-90722036D01*
X149578087Y-90662410D01*
X149662410Y-90578087D01*
X149722036Y-90474813D01*
X149752900Y-90359625D01*
X149752900Y-90240375D01*
X149722036Y-90125187D01*
X149715872Y-90114510D01*
X149662410Y-90021912D01*
X149578087Y-89937589D01*
X149474813Y-89877964D01*
X149359625Y-89847100D01*
X149240375Y-89847100D01*
X149153984Y-89870248D01*
X149125186Y-89877964D01*
X149125185Y-89877964D01*
X149021912Y-89937589D01*
X148937589Y-90021912D01*
X148877964Y-90125185D01*
X148877964Y-90125186D01*
X148877964Y-90125187D01*
X148847100Y-90240375D01*
X147402900Y-90240375D01*
X147402900Y-90190375D01*
X147372036Y-90075187D01*
X147341278Y-90021913D01*
X147312410Y-89971912D01*
X147228087Y-89887589D01*
X147124813Y-89827964D01*
X147009625Y-89797100D01*
X146890375Y-89797100D01*
X146803984Y-89820248D01*
X146775186Y-89827964D01*
X146775185Y-89827964D01*
X146671912Y-89887589D01*
X146587589Y-89971912D01*
X146527964Y-90075185D01*
X146527964Y-90075186D01*
X146527964Y-90075187D01*
X146497100Y-90190375D01*
X141379362Y-90190375D01*
X141398398Y-90144419D01*
X141404492Y-90121674D01*
X141405106Y-90119792D01*
X141409240Y-90114510D01*
X141423480Y-90089873D01*
X143733774Y-87784289D01*
X143780415Y-87762599D01*
X143787031Y-87762319D01*
X156721973Y-87788718D01*
G37*
%TD.AperFunction*%
%TD*%
M02*
