%TF.GenerationSoftware,KiCad,Pcbnew,9.0.0*%
%TF.CreationDate,2025-03-16T17:44:07+09:00*%
%TF.ProjectId,imx219_mipi24,696d7832-3139-45f6-9d69-706932342e6b,rev?*%
%TF.SameCoordinates,Original*%
%TF.FileFunction,Legend,Bot*%
%TF.FilePolarity,Positive*%
%FSLAX46Y46*%
G04 Gerber Fmt 4.6, Leading zero omitted, Abs format (unit mm)*
G04 Created by KiCad (PCBNEW 9.0.0) date 2025-03-16 17:44:07*
%MOMM*%
%LPD*%
G01*
G04 APERTURE LIST*
%ADD10C,0.150000*%
%ADD11C,0.120000*%
%ADD12C,0.152400*%
%ADD13C,0.100000*%
G04 APERTURE END LIST*
D10*
X149566666Y-91254819D02*
X149899999Y-90778628D01*
X150138094Y-91254819D02*
X150138094Y-90254819D01*
X150138094Y-90254819D02*
X149757142Y-90254819D01*
X149757142Y-90254819D02*
X149661904Y-90302438D01*
X149661904Y-90302438D02*
X149614285Y-90350057D01*
X149614285Y-90350057D02*
X149566666Y-90445295D01*
X149566666Y-90445295D02*
X149566666Y-90588152D01*
X149566666Y-90588152D02*
X149614285Y-90683390D01*
X149614285Y-90683390D02*
X149661904Y-90731009D01*
X149661904Y-90731009D02*
X149757142Y-90778628D01*
X149757142Y-90778628D02*
X150138094Y-90778628D01*
X148614285Y-91254819D02*
X149185713Y-91254819D01*
X148899999Y-91254819D02*
X148899999Y-90254819D01*
X148899999Y-90254819D02*
X148995237Y-90397676D01*
X148995237Y-90397676D02*
X149090475Y-90492914D01*
X149090475Y-90492914D02*
X149185713Y-90540533D01*
X160104819Y-96238095D02*
X160914342Y-96238095D01*
X160914342Y-96238095D02*
X161009580Y-96285714D01*
X161009580Y-96285714D02*
X161057200Y-96333333D01*
X161057200Y-96333333D02*
X161104819Y-96428571D01*
X161104819Y-96428571D02*
X161104819Y-96619047D01*
X161104819Y-96619047D02*
X161057200Y-96714285D01*
X161057200Y-96714285D02*
X161009580Y-96761904D01*
X161009580Y-96761904D02*
X160914342Y-96809523D01*
X160914342Y-96809523D02*
X160104819Y-96809523D01*
X161104819Y-97809523D02*
X161104819Y-97238095D01*
X161104819Y-97523809D02*
X160104819Y-97523809D01*
X160104819Y-97523809D02*
X160247676Y-97428571D01*
X160247676Y-97428571D02*
X160342914Y-97333333D01*
X160342914Y-97333333D02*
X160390533Y-97238095D01*
X144566666Y-89559580D02*
X144614285Y-89607200D01*
X144614285Y-89607200D02*
X144757142Y-89654819D01*
X144757142Y-89654819D02*
X144852380Y-89654819D01*
X144852380Y-89654819D02*
X144995237Y-89607200D01*
X144995237Y-89607200D02*
X145090475Y-89511961D01*
X145090475Y-89511961D02*
X145138094Y-89416723D01*
X145138094Y-89416723D02*
X145185713Y-89226247D01*
X145185713Y-89226247D02*
X145185713Y-89083390D01*
X145185713Y-89083390D02*
X145138094Y-88892914D01*
X145138094Y-88892914D02*
X145090475Y-88797676D01*
X145090475Y-88797676D02*
X144995237Y-88702438D01*
X144995237Y-88702438D02*
X144852380Y-88654819D01*
X144852380Y-88654819D02*
X144757142Y-88654819D01*
X144757142Y-88654819D02*
X144614285Y-88702438D01*
X144614285Y-88702438D02*
X144566666Y-88750057D01*
X144185713Y-88750057D02*
X144138094Y-88702438D01*
X144138094Y-88702438D02*
X144042856Y-88654819D01*
X144042856Y-88654819D02*
X143804761Y-88654819D01*
X143804761Y-88654819D02*
X143709523Y-88702438D01*
X143709523Y-88702438D02*
X143661904Y-88750057D01*
X143661904Y-88750057D02*
X143614285Y-88845295D01*
X143614285Y-88845295D02*
X143614285Y-88940533D01*
X143614285Y-88940533D02*
X143661904Y-89083390D01*
X143661904Y-89083390D02*
X144233332Y-89654819D01*
X144233332Y-89654819D02*
X143614285Y-89654819D01*
X142424819Y-106033333D02*
X141948628Y-105700000D01*
X142424819Y-105461905D02*
X141424819Y-105461905D01*
X141424819Y-105461905D02*
X141424819Y-105842857D01*
X141424819Y-105842857D02*
X141472438Y-105938095D01*
X141472438Y-105938095D02*
X141520057Y-105985714D01*
X141520057Y-105985714D02*
X141615295Y-106033333D01*
X141615295Y-106033333D02*
X141758152Y-106033333D01*
X141758152Y-106033333D02*
X141853390Y-105985714D01*
X141853390Y-105985714D02*
X141901009Y-105938095D01*
X141901009Y-105938095D02*
X141948628Y-105842857D01*
X141948628Y-105842857D02*
X141948628Y-105461905D01*
X141424819Y-106366667D02*
X141424819Y-106985714D01*
X141424819Y-106985714D02*
X141805771Y-106652381D01*
X141805771Y-106652381D02*
X141805771Y-106795238D01*
X141805771Y-106795238D02*
X141853390Y-106890476D01*
X141853390Y-106890476D02*
X141901009Y-106938095D01*
X141901009Y-106938095D02*
X141996247Y-106985714D01*
X141996247Y-106985714D02*
X142234342Y-106985714D01*
X142234342Y-106985714D02*
X142329580Y-106938095D01*
X142329580Y-106938095D02*
X142377200Y-106890476D01*
X142377200Y-106890476D02*
X142424819Y-106795238D01*
X142424819Y-106795238D02*
X142424819Y-106509524D01*
X142424819Y-106509524D02*
X142377200Y-106414286D01*
X142377200Y-106414286D02*
X142329580Y-106366667D01*
X149031009Y-102511904D02*
X149031009Y-102178571D01*
X149554819Y-102178571D02*
X148554819Y-102178571D01*
X148554819Y-102178571D02*
X148554819Y-102654761D01*
X149554819Y-103511904D02*
X149554819Y-103035714D01*
X149554819Y-103035714D02*
X148554819Y-103035714D01*
X148888152Y-104273809D02*
X149554819Y-104273809D01*
X148507200Y-104035714D02*
X149221485Y-103797619D01*
X149221485Y-103797619D02*
X149221485Y-104416666D01*
X142501009Y-101316666D02*
X142501009Y-100983333D01*
X143024819Y-100983333D02*
X142024819Y-100983333D01*
X142024819Y-100983333D02*
X142024819Y-101459523D01*
X142501009Y-102173809D02*
X142548628Y-102316666D01*
X142548628Y-102316666D02*
X142596247Y-102364285D01*
X142596247Y-102364285D02*
X142691485Y-102411904D01*
X142691485Y-102411904D02*
X142834342Y-102411904D01*
X142834342Y-102411904D02*
X142929580Y-102364285D01*
X142929580Y-102364285D02*
X142977200Y-102316666D01*
X142977200Y-102316666D02*
X143024819Y-102221428D01*
X143024819Y-102221428D02*
X143024819Y-101840476D01*
X143024819Y-101840476D02*
X142024819Y-101840476D01*
X142024819Y-101840476D02*
X142024819Y-102173809D01*
X142024819Y-102173809D02*
X142072438Y-102269047D01*
X142072438Y-102269047D02*
X142120057Y-102316666D01*
X142120057Y-102316666D02*
X142215295Y-102364285D01*
X142215295Y-102364285D02*
X142310533Y-102364285D01*
X142310533Y-102364285D02*
X142405771Y-102316666D01*
X142405771Y-102316666D02*
X142453390Y-102269047D01*
X142453390Y-102269047D02*
X142501009Y-102173809D01*
X142501009Y-102173809D02*
X142501009Y-101840476D01*
X142120057Y-102792857D02*
X142072438Y-102840476D01*
X142072438Y-102840476D02*
X142024819Y-102935714D01*
X142024819Y-102935714D02*
X142024819Y-103173809D01*
X142024819Y-103173809D02*
X142072438Y-103269047D01*
X142072438Y-103269047D02*
X142120057Y-103316666D01*
X142120057Y-103316666D02*
X142215295Y-103364285D01*
X142215295Y-103364285D02*
X142310533Y-103364285D01*
X142310533Y-103364285D02*
X142453390Y-103316666D01*
X142453390Y-103316666D02*
X143024819Y-102745238D01*
X143024819Y-102745238D02*
X143024819Y-103364285D01*
X150431009Y-102511904D02*
X150431009Y-102178571D01*
X150954819Y-102178571D02*
X149954819Y-102178571D01*
X149954819Y-102178571D02*
X149954819Y-102654761D01*
X150954819Y-103511904D02*
X150954819Y-103035714D01*
X150954819Y-103035714D02*
X149954819Y-103035714D01*
X149954819Y-104321428D02*
X149954819Y-103845238D01*
X149954819Y-103845238D02*
X150431009Y-103797619D01*
X150431009Y-103797619D02*
X150383390Y-103845238D01*
X150383390Y-103845238D02*
X150335771Y-103940476D01*
X150335771Y-103940476D02*
X150335771Y-104178571D01*
X150335771Y-104178571D02*
X150383390Y-104273809D01*
X150383390Y-104273809D02*
X150431009Y-104321428D01*
X150431009Y-104321428D02*
X150526247Y-104369047D01*
X150526247Y-104369047D02*
X150764342Y-104369047D01*
X150764342Y-104369047D02*
X150859580Y-104321428D01*
X150859580Y-104321428D02*
X150907200Y-104273809D01*
X150907200Y-104273809D02*
X150954819Y-104178571D01*
X150954819Y-104178571D02*
X150954819Y-103940476D01*
X150954819Y-103940476D02*
X150907200Y-103845238D01*
X150907200Y-103845238D02*
X150859580Y-103797619D01*
X150745180Y-97761904D02*
X149935657Y-97761904D01*
X149935657Y-97761904D02*
X149840419Y-97714285D01*
X149840419Y-97714285D02*
X149792800Y-97666666D01*
X149792800Y-97666666D02*
X149745180Y-97571428D01*
X149745180Y-97571428D02*
X149745180Y-97380952D01*
X149745180Y-97380952D02*
X149792800Y-97285714D01*
X149792800Y-97285714D02*
X149840419Y-97238095D01*
X149840419Y-97238095D02*
X149935657Y-97190476D01*
X149935657Y-97190476D02*
X150745180Y-97190476D01*
X150649942Y-96761904D02*
X150697561Y-96714285D01*
X150697561Y-96714285D02*
X150745180Y-96619047D01*
X150745180Y-96619047D02*
X150745180Y-96380952D01*
X150745180Y-96380952D02*
X150697561Y-96285714D01*
X150697561Y-96285714D02*
X150649942Y-96238095D01*
X150649942Y-96238095D02*
X150554704Y-96190476D01*
X150554704Y-96190476D02*
X150459466Y-96190476D01*
X150459466Y-96190476D02*
X150316609Y-96238095D01*
X150316609Y-96238095D02*
X149745180Y-96809523D01*
X149745180Y-96809523D02*
X149745180Y-96190476D01*
X155345180Y-98599999D02*
X155107085Y-98599999D01*
X155202323Y-98838094D02*
X155107085Y-98599999D01*
X155107085Y-98599999D02*
X155202323Y-98361904D01*
X154916609Y-98742856D02*
X155107085Y-98599999D01*
X155107085Y-98599999D02*
X154916609Y-98457142D01*
X141333333Y-109654819D02*
X141333333Y-110369104D01*
X141333333Y-110369104D02*
X141380952Y-110511961D01*
X141380952Y-110511961D02*
X141476190Y-110607200D01*
X141476190Y-110607200D02*
X141619047Y-110654819D01*
X141619047Y-110654819D02*
X141714285Y-110654819D01*
X140904761Y-109750057D02*
X140857142Y-109702438D01*
X140857142Y-109702438D02*
X140761904Y-109654819D01*
X140761904Y-109654819D02*
X140523809Y-109654819D01*
X140523809Y-109654819D02*
X140428571Y-109702438D01*
X140428571Y-109702438D02*
X140380952Y-109750057D01*
X140380952Y-109750057D02*
X140333333Y-109845295D01*
X140333333Y-109845295D02*
X140333333Y-109940533D01*
X140333333Y-109940533D02*
X140380952Y-110083390D01*
X140380952Y-110083390D02*
X140952380Y-110654819D01*
X140952380Y-110654819D02*
X140333333Y-110654819D01*
X156159580Y-91033333D02*
X156207200Y-90985714D01*
X156207200Y-90985714D02*
X156254819Y-90842857D01*
X156254819Y-90842857D02*
X156254819Y-90747619D01*
X156254819Y-90747619D02*
X156207200Y-90604762D01*
X156207200Y-90604762D02*
X156111961Y-90509524D01*
X156111961Y-90509524D02*
X156016723Y-90461905D01*
X156016723Y-90461905D02*
X155826247Y-90414286D01*
X155826247Y-90414286D02*
X155683390Y-90414286D01*
X155683390Y-90414286D02*
X155492914Y-90461905D01*
X155492914Y-90461905D02*
X155397676Y-90509524D01*
X155397676Y-90509524D02*
X155302438Y-90604762D01*
X155302438Y-90604762D02*
X155254819Y-90747619D01*
X155254819Y-90747619D02*
X155254819Y-90842857D01*
X155254819Y-90842857D02*
X155302438Y-90985714D01*
X155302438Y-90985714D02*
X155350057Y-91033333D01*
X155683390Y-91604762D02*
X155635771Y-91509524D01*
X155635771Y-91509524D02*
X155588152Y-91461905D01*
X155588152Y-91461905D02*
X155492914Y-91414286D01*
X155492914Y-91414286D02*
X155445295Y-91414286D01*
X155445295Y-91414286D02*
X155350057Y-91461905D01*
X155350057Y-91461905D02*
X155302438Y-91509524D01*
X155302438Y-91509524D02*
X155254819Y-91604762D01*
X155254819Y-91604762D02*
X155254819Y-91795238D01*
X155254819Y-91795238D02*
X155302438Y-91890476D01*
X155302438Y-91890476D02*
X155350057Y-91938095D01*
X155350057Y-91938095D02*
X155445295Y-91985714D01*
X155445295Y-91985714D02*
X155492914Y-91985714D01*
X155492914Y-91985714D02*
X155588152Y-91938095D01*
X155588152Y-91938095D02*
X155635771Y-91890476D01*
X155635771Y-91890476D02*
X155683390Y-91795238D01*
X155683390Y-91795238D02*
X155683390Y-91604762D01*
X155683390Y-91604762D02*
X155731009Y-91509524D01*
X155731009Y-91509524D02*
X155778628Y-91461905D01*
X155778628Y-91461905D02*
X155873866Y-91414286D01*
X155873866Y-91414286D02*
X156064342Y-91414286D01*
X156064342Y-91414286D02*
X156159580Y-91461905D01*
X156159580Y-91461905D02*
X156207200Y-91509524D01*
X156207200Y-91509524D02*
X156254819Y-91604762D01*
X156254819Y-91604762D02*
X156254819Y-91795238D01*
X156254819Y-91795238D02*
X156207200Y-91890476D01*
X156207200Y-91890476D02*
X156159580Y-91938095D01*
X156159580Y-91938095D02*
X156064342Y-91985714D01*
X156064342Y-91985714D02*
X155873866Y-91985714D01*
X155873866Y-91985714D02*
X155778628Y-91938095D01*
X155778628Y-91938095D02*
X155731009Y-91890476D01*
X155731009Y-91890476D02*
X155683390Y-91795238D01*
X153331009Y-102511904D02*
X153331009Y-102178571D01*
X153854819Y-102178571D02*
X152854819Y-102178571D01*
X152854819Y-102178571D02*
X152854819Y-102654761D01*
X153854819Y-103511904D02*
X153854819Y-103035714D01*
X153854819Y-103035714D02*
X152854819Y-103035714D01*
X152950057Y-103797619D02*
X152902438Y-103845238D01*
X152902438Y-103845238D02*
X152854819Y-103940476D01*
X152854819Y-103940476D02*
X152854819Y-104178571D01*
X152854819Y-104178571D02*
X152902438Y-104273809D01*
X152902438Y-104273809D02*
X152950057Y-104321428D01*
X152950057Y-104321428D02*
X153045295Y-104369047D01*
X153045295Y-104369047D02*
X153140533Y-104369047D01*
X153140533Y-104369047D02*
X153283390Y-104321428D01*
X153283390Y-104321428D02*
X153854819Y-103750000D01*
X153854819Y-103750000D02*
X153854819Y-104369047D01*
X149566666Y-95054819D02*
X149899999Y-94578628D01*
X150138094Y-95054819D02*
X150138094Y-94054819D01*
X150138094Y-94054819D02*
X149757142Y-94054819D01*
X149757142Y-94054819D02*
X149661904Y-94102438D01*
X149661904Y-94102438D02*
X149614285Y-94150057D01*
X149614285Y-94150057D02*
X149566666Y-94245295D01*
X149566666Y-94245295D02*
X149566666Y-94388152D01*
X149566666Y-94388152D02*
X149614285Y-94483390D01*
X149614285Y-94483390D02*
X149661904Y-94531009D01*
X149661904Y-94531009D02*
X149757142Y-94578628D01*
X149757142Y-94578628D02*
X150138094Y-94578628D01*
X149185713Y-94150057D02*
X149138094Y-94102438D01*
X149138094Y-94102438D02*
X149042856Y-94054819D01*
X149042856Y-94054819D02*
X148804761Y-94054819D01*
X148804761Y-94054819D02*
X148709523Y-94102438D01*
X148709523Y-94102438D02*
X148661904Y-94150057D01*
X148661904Y-94150057D02*
X148614285Y-94245295D01*
X148614285Y-94245295D02*
X148614285Y-94340533D01*
X148614285Y-94340533D02*
X148661904Y-94483390D01*
X148661904Y-94483390D02*
X149233332Y-95054819D01*
X149233332Y-95054819D02*
X148614285Y-95054819D01*
X160966666Y-99959580D02*
X161014285Y-100007200D01*
X161014285Y-100007200D02*
X161157142Y-100054819D01*
X161157142Y-100054819D02*
X161252380Y-100054819D01*
X161252380Y-100054819D02*
X161395237Y-100007200D01*
X161395237Y-100007200D02*
X161490475Y-99911961D01*
X161490475Y-99911961D02*
X161538094Y-99816723D01*
X161538094Y-99816723D02*
X161585713Y-99626247D01*
X161585713Y-99626247D02*
X161585713Y-99483390D01*
X161585713Y-99483390D02*
X161538094Y-99292914D01*
X161538094Y-99292914D02*
X161490475Y-99197676D01*
X161490475Y-99197676D02*
X161395237Y-99102438D01*
X161395237Y-99102438D02*
X161252380Y-99054819D01*
X161252380Y-99054819D02*
X161157142Y-99054819D01*
X161157142Y-99054819D02*
X161014285Y-99102438D01*
X161014285Y-99102438D02*
X160966666Y-99150057D01*
X160109523Y-99388152D02*
X160109523Y-100054819D01*
X160347618Y-99007200D02*
X160585713Y-99721485D01*
X160585713Y-99721485D02*
X159966666Y-99721485D01*
X139009580Y-94107142D02*
X139057200Y-94059523D01*
X139057200Y-94059523D02*
X139104819Y-93916666D01*
X139104819Y-93916666D02*
X139104819Y-93821428D01*
X139104819Y-93821428D02*
X139057200Y-93678571D01*
X139057200Y-93678571D02*
X138961961Y-93583333D01*
X138961961Y-93583333D02*
X138866723Y-93535714D01*
X138866723Y-93535714D02*
X138676247Y-93488095D01*
X138676247Y-93488095D02*
X138533390Y-93488095D01*
X138533390Y-93488095D02*
X138342914Y-93535714D01*
X138342914Y-93535714D02*
X138247676Y-93583333D01*
X138247676Y-93583333D02*
X138152438Y-93678571D01*
X138152438Y-93678571D02*
X138104819Y-93821428D01*
X138104819Y-93821428D02*
X138104819Y-93916666D01*
X138104819Y-93916666D02*
X138152438Y-94059523D01*
X138152438Y-94059523D02*
X138200057Y-94107142D01*
X139104819Y-95059523D02*
X139104819Y-94488095D01*
X139104819Y-94773809D02*
X138104819Y-94773809D01*
X138104819Y-94773809D02*
X138247676Y-94678571D01*
X138247676Y-94678571D02*
X138342914Y-94583333D01*
X138342914Y-94583333D02*
X138390533Y-94488095D01*
X138104819Y-95678571D02*
X138104819Y-95773809D01*
X138104819Y-95773809D02*
X138152438Y-95869047D01*
X138152438Y-95869047D02*
X138200057Y-95916666D01*
X138200057Y-95916666D02*
X138295295Y-95964285D01*
X138295295Y-95964285D02*
X138485771Y-96011904D01*
X138485771Y-96011904D02*
X138723866Y-96011904D01*
X138723866Y-96011904D02*
X138914342Y-95964285D01*
X138914342Y-95964285D02*
X139009580Y-95916666D01*
X139009580Y-95916666D02*
X139057200Y-95869047D01*
X139057200Y-95869047D02*
X139104819Y-95773809D01*
X139104819Y-95773809D02*
X139104819Y-95678571D01*
X139104819Y-95678571D02*
X139057200Y-95583333D01*
X139057200Y-95583333D02*
X139009580Y-95535714D01*
X139009580Y-95535714D02*
X138914342Y-95488095D01*
X138914342Y-95488095D02*
X138723866Y-95440476D01*
X138723866Y-95440476D02*
X138485771Y-95440476D01*
X138485771Y-95440476D02*
X138295295Y-95488095D01*
X138295295Y-95488095D02*
X138200057Y-95535714D01*
X138200057Y-95535714D02*
X138152438Y-95583333D01*
X138152438Y-95583333D02*
X138104819Y-95678571D01*
X151931009Y-102511904D02*
X151931009Y-102178571D01*
X152454819Y-102178571D02*
X151454819Y-102178571D01*
X151454819Y-102178571D02*
X151454819Y-102654761D01*
X152454819Y-103511904D02*
X152454819Y-103035714D01*
X152454819Y-103035714D02*
X151454819Y-103035714D01*
X152454819Y-104369047D02*
X152454819Y-103797619D01*
X152454819Y-104083333D02*
X151454819Y-104083333D01*
X151454819Y-104083333D02*
X151597676Y-103988095D01*
X151597676Y-103988095D02*
X151692914Y-103892857D01*
X151692914Y-103892857D02*
X151740533Y-103797619D01*
X150966666Y-88959580D02*
X151014285Y-89007200D01*
X151014285Y-89007200D02*
X151157142Y-89054819D01*
X151157142Y-89054819D02*
X151252380Y-89054819D01*
X151252380Y-89054819D02*
X151395237Y-89007200D01*
X151395237Y-89007200D02*
X151490475Y-88911961D01*
X151490475Y-88911961D02*
X151538094Y-88816723D01*
X151538094Y-88816723D02*
X151585713Y-88626247D01*
X151585713Y-88626247D02*
X151585713Y-88483390D01*
X151585713Y-88483390D02*
X151538094Y-88292914D01*
X151538094Y-88292914D02*
X151490475Y-88197676D01*
X151490475Y-88197676D02*
X151395237Y-88102438D01*
X151395237Y-88102438D02*
X151252380Y-88054819D01*
X151252380Y-88054819D02*
X151157142Y-88054819D01*
X151157142Y-88054819D02*
X151014285Y-88102438D01*
X151014285Y-88102438D02*
X150966666Y-88150057D01*
X150014285Y-89054819D02*
X150585713Y-89054819D01*
X150299999Y-89054819D02*
X150299999Y-88054819D01*
X150299999Y-88054819D02*
X150395237Y-88197676D01*
X150395237Y-88197676D02*
X150490475Y-88292914D01*
X150490475Y-88292914D02*
X150585713Y-88340533D01*
X157392857Y-93449580D02*
X157440476Y-93497200D01*
X157440476Y-93497200D02*
X157583333Y-93544819D01*
X157583333Y-93544819D02*
X157678571Y-93544819D01*
X157678571Y-93544819D02*
X157821428Y-93497200D01*
X157821428Y-93497200D02*
X157916666Y-93401961D01*
X157916666Y-93401961D02*
X157964285Y-93306723D01*
X157964285Y-93306723D02*
X158011904Y-93116247D01*
X158011904Y-93116247D02*
X158011904Y-92973390D01*
X158011904Y-92973390D02*
X157964285Y-92782914D01*
X157964285Y-92782914D02*
X157916666Y-92687676D01*
X157916666Y-92687676D02*
X157821428Y-92592438D01*
X157821428Y-92592438D02*
X157678571Y-92544819D01*
X157678571Y-92544819D02*
X157583333Y-92544819D01*
X157583333Y-92544819D02*
X157440476Y-92592438D01*
X157440476Y-92592438D02*
X157392857Y-92640057D01*
X156440476Y-93544819D02*
X157011904Y-93544819D01*
X156726190Y-93544819D02*
X156726190Y-92544819D01*
X156726190Y-92544819D02*
X156821428Y-92687676D01*
X156821428Y-92687676D02*
X156916666Y-92782914D01*
X156916666Y-92782914D02*
X157011904Y-92830533D01*
X156059523Y-92640057D02*
X156011904Y-92592438D01*
X156011904Y-92592438D02*
X155916666Y-92544819D01*
X155916666Y-92544819D02*
X155678571Y-92544819D01*
X155678571Y-92544819D02*
X155583333Y-92592438D01*
X155583333Y-92592438D02*
X155535714Y-92640057D01*
X155535714Y-92640057D02*
X155488095Y-92735295D01*
X155488095Y-92735295D02*
X155488095Y-92830533D01*
X155488095Y-92830533D02*
X155535714Y-92973390D01*
X155535714Y-92973390D02*
X156107142Y-93544819D01*
X156107142Y-93544819D02*
X155488095Y-93544819D01*
X154154819Y-88390476D02*
X155154819Y-89057142D01*
X154154819Y-89057142D02*
X155154819Y-88390476D01*
X155154819Y-89961904D02*
X155154819Y-89390476D01*
X155154819Y-89676190D02*
X154154819Y-89676190D01*
X154154819Y-89676190D02*
X154297676Y-89580952D01*
X154297676Y-89580952D02*
X154392914Y-89485714D01*
X154392914Y-89485714D02*
X154440533Y-89390476D01*
X146092857Y-95979580D02*
X146140476Y-96027200D01*
X146140476Y-96027200D02*
X146283333Y-96074819D01*
X146283333Y-96074819D02*
X146378571Y-96074819D01*
X146378571Y-96074819D02*
X146521428Y-96027200D01*
X146521428Y-96027200D02*
X146616666Y-95931961D01*
X146616666Y-95931961D02*
X146664285Y-95836723D01*
X146664285Y-95836723D02*
X146711904Y-95646247D01*
X146711904Y-95646247D02*
X146711904Y-95503390D01*
X146711904Y-95503390D02*
X146664285Y-95312914D01*
X146664285Y-95312914D02*
X146616666Y-95217676D01*
X146616666Y-95217676D02*
X146521428Y-95122438D01*
X146521428Y-95122438D02*
X146378571Y-95074819D01*
X146378571Y-95074819D02*
X146283333Y-95074819D01*
X146283333Y-95074819D02*
X146140476Y-95122438D01*
X146140476Y-95122438D02*
X146092857Y-95170057D01*
X145140476Y-96074819D02*
X145711904Y-96074819D01*
X145426190Y-96074819D02*
X145426190Y-95074819D01*
X145426190Y-95074819D02*
X145521428Y-95217676D01*
X145521428Y-95217676D02*
X145616666Y-95312914D01*
X145616666Y-95312914D02*
X145711904Y-95360533D01*
X144188095Y-96074819D02*
X144759523Y-96074819D01*
X144473809Y-96074819D02*
X144473809Y-95074819D01*
X144473809Y-95074819D02*
X144569047Y-95217676D01*
X144569047Y-95217676D02*
X144664285Y-95312914D01*
X144664285Y-95312914D02*
X144759523Y-95360533D01*
X144466666Y-105099580D02*
X144514285Y-105147200D01*
X144514285Y-105147200D02*
X144657142Y-105194819D01*
X144657142Y-105194819D02*
X144752380Y-105194819D01*
X144752380Y-105194819D02*
X144895237Y-105147200D01*
X144895237Y-105147200D02*
X144990475Y-105051961D01*
X144990475Y-105051961D02*
X145038094Y-104956723D01*
X145038094Y-104956723D02*
X145085713Y-104766247D01*
X145085713Y-104766247D02*
X145085713Y-104623390D01*
X145085713Y-104623390D02*
X145038094Y-104432914D01*
X145038094Y-104432914D02*
X144990475Y-104337676D01*
X144990475Y-104337676D02*
X144895237Y-104242438D01*
X144895237Y-104242438D02*
X144752380Y-104194819D01*
X144752380Y-104194819D02*
X144657142Y-104194819D01*
X144657142Y-104194819D02*
X144514285Y-104242438D01*
X144514285Y-104242438D02*
X144466666Y-104290057D01*
X143990475Y-105194819D02*
X143799999Y-105194819D01*
X143799999Y-105194819D02*
X143704761Y-105147200D01*
X143704761Y-105147200D02*
X143657142Y-105099580D01*
X143657142Y-105099580D02*
X143561904Y-104956723D01*
X143561904Y-104956723D02*
X143514285Y-104766247D01*
X143514285Y-104766247D02*
X143514285Y-104385295D01*
X143514285Y-104385295D02*
X143561904Y-104290057D01*
X143561904Y-104290057D02*
X143609523Y-104242438D01*
X143609523Y-104242438D02*
X143704761Y-104194819D01*
X143704761Y-104194819D02*
X143895237Y-104194819D01*
X143895237Y-104194819D02*
X143990475Y-104242438D01*
X143990475Y-104242438D02*
X144038094Y-104290057D01*
X144038094Y-104290057D02*
X144085713Y-104385295D01*
X144085713Y-104385295D02*
X144085713Y-104623390D01*
X144085713Y-104623390D02*
X144038094Y-104718628D01*
X144038094Y-104718628D02*
X143990475Y-104766247D01*
X143990475Y-104766247D02*
X143895237Y-104813866D01*
X143895237Y-104813866D02*
X143704761Y-104813866D01*
X143704761Y-104813866D02*
X143609523Y-104766247D01*
X143609523Y-104766247D02*
X143561904Y-104718628D01*
X143561904Y-104718628D02*
X143514285Y-104623390D01*
X156833333Y-99731009D02*
X157166666Y-99731009D01*
X157166666Y-100254819D02*
X157166666Y-99254819D01*
X157166666Y-99254819D02*
X156690476Y-99254819D01*
X155976190Y-99731009D02*
X155833333Y-99778628D01*
X155833333Y-99778628D02*
X155785714Y-99826247D01*
X155785714Y-99826247D02*
X155738095Y-99921485D01*
X155738095Y-99921485D02*
X155738095Y-100064342D01*
X155738095Y-100064342D02*
X155785714Y-100159580D01*
X155785714Y-100159580D02*
X155833333Y-100207200D01*
X155833333Y-100207200D02*
X155928571Y-100254819D01*
X155928571Y-100254819D02*
X156309523Y-100254819D01*
X156309523Y-100254819D02*
X156309523Y-99254819D01*
X156309523Y-99254819D02*
X155976190Y-99254819D01*
X155976190Y-99254819D02*
X155880952Y-99302438D01*
X155880952Y-99302438D02*
X155833333Y-99350057D01*
X155833333Y-99350057D02*
X155785714Y-99445295D01*
X155785714Y-99445295D02*
X155785714Y-99540533D01*
X155785714Y-99540533D02*
X155833333Y-99635771D01*
X155833333Y-99635771D02*
X155880952Y-99683390D01*
X155880952Y-99683390D02*
X155976190Y-99731009D01*
X155976190Y-99731009D02*
X156309523Y-99731009D01*
X154785714Y-100254819D02*
X155357142Y-100254819D01*
X155071428Y-100254819D02*
X155071428Y-99254819D01*
X155071428Y-99254819D02*
X155166666Y-99397676D01*
X155166666Y-99397676D02*
X155261904Y-99492914D01*
X155261904Y-99492914D02*
X155357142Y-99540533D01*
X159366666Y-93449580D02*
X159414285Y-93497200D01*
X159414285Y-93497200D02*
X159557142Y-93544819D01*
X159557142Y-93544819D02*
X159652380Y-93544819D01*
X159652380Y-93544819D02*
X159795237Y-93497200D01*
X159795237Y-93497200D02*
X159890475Y-93401961D01*
X159890475Y-93401961D02*
X159938094Y-93306723D01*
X159938094Y-93306723D02*
X159985713Y-93116247D01*
X159985713Y-93116247D02*
X159985713Y-92973390D01*
X159985713Y-92973390D02*
X159938094Y-92782914D01*
X159938094Y-92782914D02*
X159890475Y-92687676D01*
X159890475Y-92687676D02*
X159795237Y-92592438D01*
X159795237Y-92592438D02*
X159652380Y-92544819D01*
X159652380Y-92544819D02*
X159557142Y-92544819D01*
X159557142Y-92544819D02*
X159414285Y-92592438D01*
X159414285Y-92592438D02*
X159366666Y-92640057D01*
X158509523Y-92544819D02*
X158699999Y-92544819D01*
X158699999Y-92544819D02*
X158795237Y-92592438D01*
X158795237Y-92592438D02*
X158842856Y-92640057D01*
X158842856Y-92640057D02*
X158938094Y-92782914D01*
X158938094Y-92782914D02*
X158985713Y-92973390D01*
X158985713Y-92973390D02*
X158985713Y-93354342D01*
X158985713Y-93354342D02*
X158938094Y-93449580D01*
X158938094Y-93449580D02*
X158890475Y-93497200D01*
X158890475Y-93497200D02*
X158795237Y-93544819D01*
X158795237Y-93544819D02*
X158604761Y-93544819D01*
X158604761Y-93544819D02*
X158509523Y-93497200D01*
X158509523Y-93497200D02*
X158461904Y-93449580D01*
X158461904Y-93449580D02*
X158414285Y-93354342D01*
X158414285Y-93354342D02*
X158414285Y-93116247D01*
X158414285Y-93116247D02*
X158461904Y-93021009D01*
X158461904Y-93021009D02*
X158509523Y-92973390D01*
X158509523Y-92973390D02*
X158604761Y-92925771D01*
X158604761Y-92925771D02*
X158795237Y-92925771D01*
X158795237Y-92925771D02*
X158890475Y-92973390D01*
X158890475Y-92973390D02*
X158938094Y-93021009D01*
X158938094Y-93021009D02*
X158985713Y-93116247D01*
X154931009Y-102511904D02*
X154931009Y-102178571D01*
X155454819Y-102178571D02*
X154454819Y-102178571D01*
X154454819Y-102178571D02*
X154454819Y-102654761D01*
X155454819Y-103511904D02*
X155454819Y-103035714D01*
X155454819Y-103035714D02*
X154454819Y-103035714D01*
X154454819Y-103750000D02*
X154454819Y-104369047D01*
X154454819Y-104369047D02*
X154835771Y-104035714D01*
X154835771Y-104035714D02*
X154835771Y-104178571D01*
X154835771Y-104178571D02*
X154883390Y-104273809D01*
X154883390Y-104273809D02*
X154931009Y-104321428D01*
X154931009Y-104321428D02*
X155026247Y-104369047D01*
X155026247Y-104369047D02*
X155264342Y-104369047D01*
X155264342Y-104369047D02*
X155359580Y-104321428D01*
X155359580Y-104321428D02*
X155407200Y-104273809D01*
X155407200Y-104273809D02*
X155454819Y-104178571D01*
X155454819Y-104178571D02*
X155454819Y-103892857D01*
X155454819Y-103892857D02*
X155407200Y-103797619D01*
X155407200Y-103797619D02*
X155359580Y-103750000D01*
X146166666Y-101754819D02*
X146642856Y-101754819D01*
X146642856Y-101754819D02*
X146642856Y-100754819D01*
X145309523Y-101754819D02*
X145880951Y-101754819D01*
X145595237Y-101754819D02*
X145595237Y-100754819D01*
X145595237Y-100754819D02*
X145690475Y-100897676D01*
X145690475Y-100897676D02*
X145785713Y-100992914D01*
X145785713Y-100992914D02*
X145880951Y-101040533D01*
X145966666Y-91499580D02*
X146014285Y-91547200D01*
X146014285Y-91547200D02*
X146157142Y-91594819D01*
X146157142Y-91594819D02*
X146252380Y-91594819D01*
X146252380Y-91594819D02*
X146395237Y-91547200D01*
X146395237Y-91547200D02*
X146490475Y-91451961D01*
X146490475Y-91451961D02*
X146538094Y-91356723D01*
X146538094Y-91356723D02*
X146585713Y-91166247D01*
X146585713Y-91166247D02*
X146585713Y-91023390D01*
X146585713Y-91023390D02*
X146538094Y-90832914D01*
X146538094Y-90832914D02*
X146490475Y-90737676D01*
X146490475Y-90737676D02*
X146395237Y-90642438D01*
X146395237Y-90642438D02*
X146252380Y-90594819D01*
X146252380Y-90594819D02*
X146157142Y-90594819D01*
X146157142Y-90594819D02*
X146014285Y-90642438D01*
X146014285Y-90642438D02*
X145966666Y-90690057D01*
X145633332Y-90594819D02*
X145014285Y-90594819D01*
X145014285Y-90594819D02*
X145347618Y-90975771D01*
X145347618Y-90975771D02*
X145204761Y-90975771D01*
X145204761Y-90975771D02*
X145109523Y-91023390D01*
X145109523Y-91023390D02*
X145061904Y-91071009D01*
X145061904Y-91071009D02*
X145014285Y-91166247D01*
X145014285Y-91166247D02*
X145014285Y-91404342D01*
X145014285Y-91404342D02*
X145061904Y-91499580D01*
X145061904Y-91499580D02*
X145109523Y-91547200D01*
X145109523Y-91547200D02*
X145204761Y-91594819D01*
X145204761Y-91594819D02*
X145490475Y-91594819D01*
X145490475Y-91594819D02*
X145585713Y-91547200D01*
X145585713Y-91547200D02*
X145633332Y-91499580D01*
X154166666Y-93559580D02*
X154214285Y-93607200D01*
X154214285Y-93607200D02*
X154357142Y-93654819D01*
X154357142Y-93654819D02*
X154452380Y-93654819D01*
X154452380Y-93654819D02*
X154595237Y-93607200D01*
X154595237Y-93607200D02*
X154690475Y-93511961D01*
X154690475Y-93511961D02*
X154738094Y-93416723D01*
X154738094Y-93416723D02*
X154785713Y-93226247D01*
X154785713Y-93226247D02*
X154785713Y-93083390D01*
X154785713Y-93083390D02*
X154738094Y-92892914D01*
X154738094Y-92892914D02*
X154690475Y-92797676D01*
X154690475Y-92797676D02*
X154595237Y-92702438D01*
X154595237Y-92702438D02*
X154452380Y-92654819D01*
X154452380Y-92654819D02*
X154357142Y-92654819D01*
X154357142Y-92654819D02*
X154214285Y-92702438D01*
X154214285Y-92702438D02*
X154166666Y-92750057D01*
X153833332Y-92654819D02*
X153166666Y-92654819D01*
X153166666Y-92654819D02*
X153595237Y-93654819D01*
X151766666Y-100159580D02*
X151814285Y-100207200D01*
X151814285Y-100207200D02*
X151957142Y-100254819D01*
X151957142Y-100254819D02*
X152052380Y-100254819D01*
X152052380Y-100254819D02*
X152195237Y-100207200D01*
X152195237Y-100207200D02*
X152290475Y-100111961D01*
X152290475Y-100111961D02*
X152338094Y-100016723D01*
X152338094Y-100016723D02*
X152385713Y-99826247D01*
X152385713Y-99826247D02*
X152385713Y-99683390D01*
X152385713Y-99683390D02*
X152338094Y-99492914D01*
X152338094Y-99492914D02*
X152290475Y-99397676D01*
X152290475Y-99397676D02*
X152195237Y-99302438D01*
X152195237Y-99302438D02*
X152052380Y-99254819D01*
X152052380Y-99254819D02*
X151957142Y-99254819D01*
X151957142Y-99254819D02*
X151814285Y-99302438D01*
X151814285Y-99302438D02*
X151766666Y-99350057D01*
X150861904Y-99254819D02*
X151338094Y-99254819D01*
X151338094Y-99254819D02*
X151385713Y-99731009D01*
X151385713Y-99731009D02*
X151338094Y-99683390D01*
X151338094Y-99683390D02*
X151242856Y-99635771D01*
X151242856Y-99635771D02*
X151004761Y-99635771D01*
X151004761Y-99635771D02*
X150909523Y-99683390D01*
X150909523Y-99683390D02*
X150861904Y-99731009D01*
X150861904Y-99731009D02*
X150814285Y-99826247D01*
X150814285Y-99826247D02*
X150814285Y-100064342D01*
X150814285Y-100064342D02*
X150861904Y-100159580D01*
X150861904Y-100159580D02*
X150909523Y-100207200D01*
X150909523Y-100207200D02*
X151004761Y-100254819D01*
X151004761Y-100254819D02*
X151242856Y-100254819D01*
X151242856Y-100254819D02*
X151338094Y-100207200D01*
X151338094Y-100207200D02*
X151385713Y-100159580D01*
X142361904Y-99354819D02*
X142361904Y-100164342D01*
X142361904Y-100164342D02*
X142314285Y-100259580D01*
X142314285Y-100259580D02*
X142266666Y-100307200D01*
X142266666Y-100307200D02*
X142171428Y-100354819D01*
X142171428Y-100354819D02*
X141980952Y-100354819D01*
X141980952Y-100354819D02*
X141885714Y-100307200D01*
X141885714Y-100307200D02*
X141838095Y-100259580D01*
X141838095Y-100259580D02*
X141790476Y-100164342D01*
X141790476Y-100164342D02*
X141790476Y-99354819D01*
X141409523Y-99354819D02*
X140790476Y-99354819D01*
X140790476Y-99354819D02*
X141123809Y-99735771D01*
X141123809Y-99735771D02*
X140980952Y-99735771D01*
X140980952Y-99735771D02*
X140885714Y-99783390D01*
X140885714Y-99783390D02*
X140838095Y-99831009D01*
X140838095Y-99831009D02*
X140790476Y-99926247D01*
X140790476Y-99926247D02*
X140790476Y-100164342D01*
X140790476Y-100164342D02*
X140838095Y-100259580D01*
X140838095Y-100259580D02*
X140885714Y-100307200D01*
X140885714Y-100307200D02*
X140980952Y-100354819D01*
X140980952Y-100354819D02*
X141266666Y-100354819D01*
X141266666Y-100354819D02*
X141361904Y-100307200D01*
X141361904Y-100307200D02*
X141409523Y-100259580D01*
D11*
%TO.C,R1*%
X149553641Y-91670000D02*
X149246359Y-91670000D01*
X149553641Y-92430000D02*
X149246359Y-92430000D01*
%TO.C,U1*%
X156690000Y-97000000D02*
X156690000Y-96200000D01*
X156690000Y-97000000D02*
X156690000Y-97800000D01*
X159810000Y-97000000D02*
X159810000Y-96200000D01*
X159810000Y-97000000D02*
X159810000Y-97800000D01*
X160090000Y-98540000D02*
X159760000Y-98300000D01*
X160090000Y-98060000D01*
X160090000Y-98540000D01*
G36*
X160090000Y-98540000D02*
G01*
X159760000Y-98300000D01*
X160090000Y-98060000D01*
X160090000Y-98540000D01*
G37*
%TO.C,C2*%
X146507836Y-88890000D02*
X146292164Y-88890000D01*
X146507836Y-89610000D02*
X146292164Y-89610000D01*
%TO.C,R3*%
X140420000Y-106353641D02*
X140420000Y-106046359D01*
X141180000Y-106353641D02*
X141180000Y-106046359D01*
%TO.C,FB2*%
X143490000Y-101987221D02*
X143490000Y-102312779D01*
X144510000Y-101987221D02*
X144510000Y-102312779D01*
D12*
%TO.C,U2*%
X151523001Y-97977000D02*
X151523001Y-96023000D01*
X152832739Y-96023000D02*
X153567261Y-96023000D01*
X154876999Y-96023000D02*
X154876999Y-97977000D01*
D13*
%TO.C,J2*%
X142000000Y-108000000D02*
X143000000Y-108000000D01*
X142000000Y-112250000D02*
X142000000Y-108000000D01*
X143000000Y-107600000D02*
X144000000Y-107600000D01*
X143000000Y-108000000D02*
X143000000Y-107600000D01*
X156000000Y-107500000D02*
X157000000Y-107500000D01*
X157000000Y-107500000D02*
X157000000Y-108000000D01*
X157000000Y-108000000D02*
X158000000Y-108000000D01*
X158000000Y-108000000D02*
X158000000Y-112250000D01*
X158000000Y-112250000D02*
X142000000Y-112250000D01*
X155800000Y-106500000D02*
X155500000Y-106000000D01*
X156100000Y-106000000D01*
X155800000Y-106500000D01*
G36*
X155800000Y-106500000D02*
G01*
X155500000Y-106000000D01*
X156100000Y-106000000D01*
X155800000Y-106500000D01*
G37*
D11*
%TO.C,C8*%
X154190000Y-90942164D02*
X154190000Y-91157836D01*
X154910000Y-90942164D02*
X154910000Y-91157836D01*
%TO.C,R2*%
X149553641Y-92820000D02*
X149246359Y-92820000D01*
X149553641Y-93580000D02*
X149246359Y-93580000D01*
%TO.C,C4*%
X158927836Y-99240000D02*
X158712164Y-99240000D01*
X158927836Y-99960000D02*
X158712164Y-99960000D01*
%TO.C,C10*%
X138190000Y-97940580D02*
X138190000Y-97659420D01*
X139210000Y-97940580D02*
X139210000Y-97659420D01*
%TO.C,C1*%
X149007836Y-88940000D02*
X148792164Y-88940000D01*
X149007836Y-89660000D02*
X148792164Y-89660000D01*
%TO.C,C12*%
X156857836Y-93890000D02*
X156642164Y-93890000D01*
X156857836Y-94610000D02*
X156642164Y-94610000D01*
D13*
%TO.C,X1*%
X153000000Y-89500000D02*
X153700000Y-89500000D01*
X153700000Y-90100000D02*
X153700000Y-89500000D01*
D11*
%TO.C,C11*%
X145590580Y-96540000D02*
X145309420Y-96540000D01*
X145590580Y-97560000D02*
X145309420Y-97560000D01*
%TO.C,C9*%
X144407836Y-105540000D02*
X144192164Y-105540000D01*
X144407836Y-106260000D02*
X144192164Y-106260000D01*
%TO.C,FB1*%
X155975279Y-100690000D02*
X155649721Y-100690000D01*
X155975279Y-101710000D02*
X155649721Y-101710000D01*
%TO.C,C6*%
X158857836Y-93890000D02*
X158642164Y-93890000D01*
X158857836Y-94610000D02*
X158642164Y-94610000D01*
%TO.C,L1*%
X145438748Y-98140000D02*
X145961252Y-98140000D01*
X145438748Y-100360000D02*
X145961252Y-100360000D01*
%TO.C,C3*%
X145907836Y-91940000D02*
X145692164Y-91940000D01*
X145907836Y-92660000D02*
X145692164Y-92660000D01*
%TO.C,C7*%
X153707836Y-93890000D02*
X153492164Y-93890000D01*
X153707836Y-94610000D02*
X153492164Y-94610000D01*
%TO.C,C5*%
X153707836Y-99240000D02*
X153492164Y-99240000D01*
X153707836Y-99960000D02*
X153492164Y-99960000D01*
%TO.C,U3*%
X141600000Y-95940000D02*
X140800000Y-95940000D01*
X141600000Y-95940000D02*
X142400000Y-95940000D01*
X141600000Y-99060000D02*
X140800000Y-99060000D01*
X141600000Y-99060000D02*
X142400000Y-99060000D01*
X140540000Y-99340000D02*
X140060000Y-99340000D01*
X140300000Y-99010000D01*
X140540000Y-99340000D01*
G36*
X140540000Y-99340000D02*
G01*
X140060000Y-99340000D01*
X140300000Y-99010000D01*
X140540000Y-99340000D01*
G37*
%TD*%
M02*
