%TF.GenerationSoftware,KiCad,Pcbnew,9.0.0*%
%TF.CreationDate,2025-05-23T22:04:32+09:00*%
%TF.ProjectId,imx219_mipi24,696d7832-3139-45f6-9d69-706932342e6b,rev?*%
%TF.SameCoordinates,Original*%
%TF.FileFunction,Soldermask,Top*%
%TF.FilePolarity,Negative*%
%FSLAX46Y46*%
G04 Gerber Fmt 4.6, Leading zero omitted, Abs format (unit mm)*
G04 Created by KiCad (PCBNEW 9.0.0) date 2025-05-23 22:04:32*
%MOMM*%
%LPD*%
G01*
G04 APERTURE LIST*
%ADD10C,0.010000*%
%ADD11C,2.000000*%
G04 APERTURE END LIST*
D10*
%TO.C,J1*%
X145865000Y-91540000D02*
X145535000Y-91540000D01*
X145535000Y-90810000D01*
X145865000Y-90810000D01*
X145865000Y-91540000D01*
G36*
X145865000Y-91540000D02*
G01*
X145535000Y-91540000D01*
X145535000Y-90810000D01*
X145865000Y-90810000D01*
X145865000Y-91540000D01*
G37*
X145865000Y-94190000D02*
X145535000Y-94190000D01*
X145535000Y-93460000D01*
X145865000Y-93460000D01*
X145865000Y-94190000D01*
G36*
X145865000Y-94190000D02*
G01*
X145535000Y-94190000D01*
X145535000Y-93460000D01*
X145865000Y-93460000D01*
X145865000Y-94190000D01*
G37*
X146265000Y-91540000D02*
X145935000Y-91540000D01*
X145935000Y-90810000D01*
X146265000Y-90810000D01*
X146265000Y-91540000D01*
G36*
X146265000Y-91540000D02*
G01*
X145935000Y-91540000D01*
X145935000Y-90810000D01*
X146265000Y-90810000D01*
X146265000Y-91540000D01*
G37*
X146265000Y-94190000D02*
X145935000Y-94190000D01*
X145935000Y-93460000D01*
X146265000Y-93460000D01*
X146265000Y-94190000D01*
G36*
X146265000Y-94190000D02*
G01*
X145935000Y-94190000D01*
X145935000Y-93460000D01*
X146265000Y-93460000D01*
X146265000Y-94190000D01*
G37*
X146665000Y-91540000D02*
X146335000Y-91540000D01*
X146335000Y-90810000D01*
X146665000Y-90810000D01*
X146665000Y-91540000D01*
G36*
X146665000Y-91540000D02*
G01*
X146335000Y-91540000D01*
X146335000Y-90810000D01*
X146665000Y-90810000D01*
X146665000Y-91540000D01*
G37*
X146665000Y-94190000D02*
X146335000Y-94190000D01*
X146335000Y-93460000D01*
X146665000Y-93460000D01*
X146665000Y-94190000D01*
G36*
X146665000Y-94190000D02*
G01*
X146335000Y-94190000D01*
X146335000Y-93460000D01*
X146665000Y-93460000D01*
X146665000Y-94190000D01*
G37*
X147065000Y-91540000D02*
X146735000Y-91540000D01*
X146735000Y-90810000D01*
X147065000Y-90810000D01*
X147065000Y-91540000D01*
G36*
X147065000Y-91540000D02*
G01*
X146735000Y-91540000D01*
X146735000Y-90810000D01*
X147065000Y-90810000D01*
X147065000Y-91540000D01*
G37*
X147065000Y-94190000D02*
X146735000Y-94190000D01*
X146735000Y-93460000D01*
X147065000Y-93460000D01*
X147065000Y-94190000D01*
G36*
X147065000Y-94190000D02*
G01*
X146735000Y-94190000D01*
X146735000Y-93460000D01*
X147065000Y-93460000D01*
X147065000Y-94190000D01*
G37*
X147465000Y-91540000D02*
X147135000Y-91540000D01*
X147135000Y-90810000D01*
X147465000Y-90810000D01*
X147465000Y-91540000D01*
G36*
X147465000Y-91540000D02*
G01*
X147135000Y-91540000D01*
X147135000Y-90810000D01*
X147465000Y-90810000D01*
X147465000Y-91540000D01*
G37*
X147465000Y-94190000D02*
X147135000Y-94190000D01*
X147135000Y-93460000D01*
X147465000Y-93460000D01*
X147465000Y-94190000D01*
G36*
X147465000Y-94190000D02*
G01*
X147135000Y-94190000D01*
X147135000Y-93460000D01*
X147465000Y-93460000D01*
X147465000Y-94190000D01*
G37*
X147865000Y-91540000D02*
X147535000Y-91540000D01*
X147535000Y-90810000D01*
X147865000Y-90810000D01*
X147865000Y-91540000D01*
G36*
X147865000Y-91540000D02*
G01*
X147535000Y-91540000D01*
X147535000Y-90810000D01*
X147865000Y-90810000D01*
X147865000Y-91540000D01*
G37*
X147865000Y-94190000D02*
X147535000Y-94190000D01*
X147535000Y-93460000D01*
X147865000Y-93460000D01*
X147865000Y-94190000D01*
G36*
X147865000Y-94190000D02*
G01*
X147535000Y-94190000D01*
X147535000Y-93460000D01*
X147865000Y-93460000D01*
X147865000Y-94190000D01*
G37*
X148265000Y-91540000D02*
X147935000Y-91540000D01*
X147935000Y-90810000D01*
X148265000Y-90810000D01*
X148265000Y-91540000D01*
G36*
X148265000Y-91540000D02*
G01*
X147935000Y-91540000D01*
X147935000Y-90810000D01*
X148265000Y-90810000D01*
X148265000Y-91540000D01*
G37*
X148265000Y-94190000D02*
X147935000Y-94190000D01*
X147935000Y-93460000D01*
X148265000Y-93460000D01*
X148265000Y-94190000D01*
G36*
X148265000Y-94190000D02*
G01*
X147935000Y-94190000D01*
X147935000Y-93460000D01*
X148265000Y-93460000D01*
X148265000Y-94190000D01*
G37*
X148665000Y-91540000D02*
X148335000Y-91540000D01*
X148335000Y-90810000D01*
X148665000Y-90810000D01*
X148665000Y-91540000D01*
G36*
X148665000Y-91540000D02*
G01*
X148335000Y-91540000D01*
X148335000Y-90810000D01*
X148665000Y-90810000D01*
X148665000Y-91540000D01*
G37*
X148665000Y-94190000D02*
X148335000Y-94190000D01*
X148335000Y-93460000D01*
X148665000Y-93460000D01*
X148665000Y-94190000D01*
G36*
X148665000Y-94190000D02*
G01*
X148335000Y-94190000D01*
X148335000Y-93460000D01*
X148665000Y-93460000D01*
X148665000Y-94190000D01*
G37*
X149065000Y-91540000D02*
X148735000Y-91540000D01*
X148735000Y-90810000D01*
X149065000Y-90810000D01*
X149065000Y-91540000D01*
G36*
X149065000Y-91540000D02*
G01*
X148735000Y-91540000D01*
X148735000Y-90810000D01*
X149065000Y-90810000D01*
X149065000Y-91540000D01*
G37*
X149065000Y-94190000D02*
X148735000Y-94190000D01*
X148735000Y-93460000D01*
X149065000Y-93460000D01*
X149065000Y-94190000D01*
G36*
X149065000Y-94190000D02*
G01*
X148735000Y-94190000D01*
X148735000Y-93460000D01*
X149065000Y-93460000D01*
X149065000Y-94190000D01*
G37*
X149465000Y-91540000D02*
X149135000Y-91540000D01*
X149135000Y-90810000D01*
X149465000Y-90810000D01*
X149465000Y-91540000D01*
G36*
X149465000Y-91540000D02*
G01*
X149135000Y-91540000D01*
X149135000Y-90810000D01*
X149465000Y-90810000D01*
X149465000Y-91540000D01*
G37*
X149465000Y-94190000D02*
X149135000Y-94190000D01*
X149135000Y-93460000D01*
X149465000Y-93460000D01*
X149465000Y-94190000D01*
G36*
X149465000Y-94190000D02*
G01*
X149135000Y-94190000D01*
X149135000Y-93460000D01*
X149465000Y-93460000D01*
X149465000Y-94190000D01*
G37*
X149865000Y-91540000D02*
X149535000Y-91540000D01*
X149535000Y-90810000D01*
X149865000Y-90810000D01*
X149865000Y-91540000D01*
G36*
X149865000Y-91540000D02*
G01*
X149535000Y-91540000D01*
X149535000Y-90810000D01*
X149865000Y-90810000D01*
X149865000Y-91540000D01*
G37*
X149865000Y-94190000D02*
X149535000Y-94190000D01*
X149535000Y-93460000D01*
X149865000Y-93460000D01*
X149865000Y-94190000D01*
G36*
X149865000Y-94190000D02*
G01*
X149535000Y-94190000D01*
X149535000Y-93460000D01*
X149865000Y-93460000D01*
X149865000Y-94190000D01*
G37*
X150265000Y-91540000D02*
X149935000Y-91540000D01*
X149935000Y-90810000D01*
X150265000Y-90810000D01*
X150265000Y-91540000D01*
G36*
X150265000Y-91540000D02*
G01*
X149935000Y-91540000D01*
X149935000Y-90810000D01*
X150265000Y-90810000D01*
X150265000Y-91540000D01*
G37*
X150265000Y-94190000D02*
X149935000Y-94190000D01*
X149935000Y-93460000D01*
X150265000Y-93460000D01*
X150265000Y-94190000D01*
G36*
X150265000Y-94190000D02*
G01*
X149935000Y-94190000D01*
X149935000Y-93460000D01*
X150265000Y-93460000D01*
X150265000Y-94190000D01*
G37*
X150665000Y-91540000D02*
X150335000Y-91540000D01*
X150335000Y-90810000D01*
X150665000Y-90810000D01*
X150665000Y-91540000D01*
G36*
X150665000Y-91540000D02*
G01*
X150335000Y-91540000D01*
X150335000Y-90810000D01*
X150665000Y-90810000D01*
X150665000Y-91540000D01*
G37*
X150665000Y-94190000D02*
X150335000Y-94190000D01*
X150335000Y-93460000D01*
X150665000Y-93460000D01*
X150665000Y-94190000D01*
G36*
X150665000Y-94190000D02*
G01*
X150335000Y-94190000D01*
X150335000Y-93460000D01*
X150665000Y-93460000D01*
X150665000Y-94190000D01*
G37*
X151065000Y-91540000D02*
X150735000Y-91540000D01*
X150735000Y-90810000D01*
X151065000Y-90810000D01*
X151065000Y-91540000D01*
G36*
X151065000Y-91540000D02*
G01*
X150735000Y-91540000D01*
X150735000Y-90810000D01*
X151065000Y-90810000D01*
X151065000Y-91540000D01*
G37*
X151065000Y-94190000D02*
X150735000Y-94190000D01*
X150735000Y-93460000D01*
X151065000Y-93460000D01*
X151065000Y-94190000D01*
G36*
X151065000Y-94190000D02*
G01*
X150735000Y-94190000D01*
X150735000Y-93460000D01*
X151065000Y-93460000D01*
X151065000Y-94190000D01*
G37*
X151465000Y-91540000D02*
X151135000Y-91540000D01*
X151135000Y-90810000D01*
X151465000Y-90810000D01*
X151465000Y-91540000D01*
G36*
X151465000Y-91540000D02*
G01*
X151135000Y-91540000D01*
X151135000Y-90810000D01*
X151465000Y-90810000D01*
X151465000Y-91540000D01*
G37*
X151465000Y-94190000D02*
X151135000Y-94190000D01*
X151135000Y-93460000D01*
X151465000Y-93460000D01*
X151465000Y-94190000D01*
G36*
X151465000Y-94190000D02*
G01*
X151135000Y-94190000D01*
X151135000Y-93460000D01*
X151465000Y-93460000D01*
X151465000Y-94190000D01*
G37*
%TD*%
D11*
%TO.C,*%
X160500000Y-102500000D03*
%TD*%
%TO.C,*%
X160500000Y-89500000D03*
%TD*%
%TO.C,REF\u002A\u002A*%
X139500000Y-89500000D03*
%TD*%
%TO.C,*%
X139500000Y-102500000D03*
%TD*%
M02*
