M48
; DRILL file {KiCad 9.0.0} date 2025-05-23T22:04:30+0900
; FORMAT={-:-/ absolute / metric / decimal}
; #@! TF.CreationDate,2025-05-23T22:04:30+09:00
; #@! TF.GenerationSoftware,Kicad,Pcbnew,9.0.0
; #@! TF.FileFunction,Plated,1,4,PTH
FMAT,2
METRIC
; #@! TA.AperFunction,Plated,PTH,ViaDrill
T1C0.300
%
G90
G05
T1
X139.3Y-94.1
X139.9Y-109.4
X140.4Y-100.1
X140.75Y-95.5
X141.0Y-104.9
X141.5Y-92.3
X143.4Y-107.0
X144.0Y-97.438
X144.6Y-108.4
X145.2Y-89.2
X145.2Y-111.4
X145.4Y-101.7
X145.6Y-94.8
X146.2Y-95.4
X146.9Y-91.95
X146.95Y-90.25
X147.0Y-109.4
X147.6Y-93.0
X147.8Y-104.1
X148.15Y-92.05
X148.2Y-90.2
X148.6Y-108.6
X149.3Y-90.3
X149.8Y-108.6
X150.349Y-95.2
X150.9Y-111.3
X151.051Y-95.2
X151.2Y-93.0
X151.349Y-100.359
X151.4Y-108.6
X151.649Y-104.0
X152.051Y-100.359
X152.351Y-104.0
X152.8Y-108.0
X153.149Y-104.0
X153.2Y-96.3
X153.5Y-100.6
X153.851Y-104.0
X154.2Y-108.0
X154.649Y-104.0
X155.351Y-104.0
X155.6Y-96.2
X155.8Y-108.0
X156.0Y-92.0
X156.2Y-102.9
X156.5Y-89.3
X157.1Y-92.8
X157.6Y-99.6
X158.2Y-97.0
X160.1Y-109.5
X161.1Y-94.6
M30
