%TF.GenerationSoftware,KiCad,Pcbnew,9.0.0*%
%TF.CreationDate,2025-05-23T22:04:32+09:00*%
%TF.ProjectId,imx219_mipi24,696d7832-3139-45f6-9d69-706932342e6b,rev?*%
%TF.SameCoordinates,Original*%
%TF.FileFunction,Copper,L1,Top*%
%TF.FilePolarity,Positive*%
%FSLAX46Y46*%
G04 Gerber Fmt 4.6, Leading zero omitted, Abs format (unit mm)*
G04 Created by KiCad (PCBNEW 9.0.0) date 2025-05-23 22:04:32*
%MOMM*%
%LPD*%
G01*
G04 APERTURE LIST*
%TA.AperFunction,SMDPad,CuDef*%
%ADD10R,0.230000X0.630000*%
%TD*%
%TA.AperFunction,ViaPad*%
%ADD11C,0.600000*%
%TD*%
%TA.AperFunction,Conductor*%
%ADD12C,0.508000*%
%TD*%
%TA.AperFunction,Conductor*%
%ADD13C,0.254000*%
%TD*%
%TA.AperFunction,Conductor*%
%ADD14C,0.152400*%
%TD*%
%TA.AperFunction,Conductor*%
%ADD15C,0.200000*%
%TD*%
%TA.AperFunction,Conductor*%
%ADD16C,0.139700*%
%TD*%
G04 APERTURE END LIST*
D10*
%TO.P,J1,1,Pin_1*%
%TO.N,unconnected-(J1-Pin_1-Pad1)*%
X145700000Y-91175000D03*
%TO.P,J1,2,Pin_2*%
%TO.N,unconnected-(J1-Pin_2-Pad2)*%
X146100000Y-91175000D03*
%TO.P,J1,3,Pin_3*%
%TO.N,+1V8*%
X146500000Y-91175000D03*
%TO.P,J1,4,Pin_4*%
%TO.N,+1V2*%
X146900000Y-91175000D03*
%TO.P,J1,5,Pin_5*%
%TO.N,+1V8*%
X147300000Y-91175000D03*
%TO.P,J1,6,Pin_6*%
%TO.N,GND*%
X147700000Y-91175000D03*
%TO.P,J1,7,Pin_7*%
%TO.N,/CAM_CLK*%
X148100000Y-91175000D03*
%TO.P,J1,8,Pin_8*%
%TO.N,GND*%
X148500000Y-91175000D03*
%TO.P,J1,9,Pin_9*%
X148900000Y-91175000D03*
%TO.P,J1,10,Pin_10*%
%TO.N,+2V8*%
X149300000Y-91175000D03*
%TO.P,J1,11,Pin_11*%
%TO.N,unconnected-(J1-Pin_11-Pad11)*%
X149700000Y-91175000D03*
%TO.P,J1,12,Pin_12*%
%TO.N,GND*%
X150100000Y-91175000D03*
%TO.P,J1,13,Pin_13*%
%TO.N,/CAM_DP3*%
X150500000Y-91175000D03*
%TO.P,J1,14,Pin_14*%
%TO.N,/CAM_DN3*%
X150900000Y-91175000D03*
%TO.P,J1,15,Pin_15*%
%TO.N,GND*%
X151300000Y-91175000D03*
%TO.P,J1,16,Pin_16*%
X151300000Y-93825000D03*
%TO.P,J1,17,Pin_17*%
%TO.N,/CAM_DN2*%
X150900000Y-93825000D03*
%TO.P,J1,18,Pin_18*%
%TO.N,/CAM_DP2*%
X150500000Y-93825000D03*
%TO.P,J1,19,Pin_19*%
%TO.N,GND*%
X150100000Y-93825000D03*
%TO.P,J1,20,Pin_20*%
%TO.N,/CAM_DN1*%
X149700000Y-93825000D03*
%TO.P,J1,21,Pin_21*%
%TO.N,/CAM_DP1*%
X149300000Y-93825000D03*
%TO.P,J1,22,Pin_22*%
%TO.N,GND*%
X148900000Y-93825000D03*
%TO.P,J1,23,Pin_23*%
%TO.N,/CAM_DN0*%
X148500000Y-93825000D03*
%TO.P,J1,24,Pin_24*%
%TO.N,/CAM_DP0*%
X148100000Y-93825000D03*
%TO.P,J1,25,Pin_25*%
%TO.N,GND*%
X147700000Y-93825000D03*
%TO.P,J1,26,Pin_26*%
%TO.N,/CAM_CN*%
X147300000Y-93825000D03*
%TO.P,J1,27,Pin_27*%
%TO.N,/CAM_CP*%
X146900000Y-93825000D03*
%TO.P,J1,28,Pin_28*%
%TO.N,GND*%
X146500000Y-93825000D03*
%TO.P,J1,29,Pin_29*%
%TO.N,/CAM_SCL*%
X146100000Y-93825000D03*
%TO.P,J1,30,Pin_30*%
%TO.N,/CAM_SDA*%
X145700000Y-93825000D03*
%TD*%
D11*
%TO.N,+2V8*%
X149300000Y-90300000D03*
X156000000Y-92000000D03*
%TO.N,GND*%
X152800000Y-108000000D03*
X154200000Y-108000000D03*
X148600000Y-108600000D03*
X140400000Y-100100000D03*
X153500000Y-100600000D03*
X161100000Y-94600000D03*
X155800000Y-108000000D03*
X156200000Y-102900000D03*
X139900000Y-109400000D03*
X143400000Y-107000000D03*
X145400000Y-101700000D03*
X153200000Y-96300000D03*
X139300000Y-94100000D03*
X149800000Y-108600000D03*
X160100000Y-109500000D03*
X151400000Y-108600000D03*
X141500000Y-92300000D03*
X157100000Y-92800000D03*
X148200000Y-90200000D03*
X158200000Y-97000000D03*
X150900000Y-111300000D03*
X147600000Y-93000000D03*
X147800000Y-104100000D03*
X151200000Y-93000000D03*
X145200000Y-111400000D03*
X144600000Y-108400000D03*
X156500000Y-89300000D03*
X145200000Y-89200000D03*
X144000000Y-97437500D03*
X155600000Y-96200000D03*
%TO.N,+1V8*%
X146950000Y-90250000D03*
%TO.N,+1V2*%
X146900000Y-91950000D03*
%TO.N,/CAM_CN*%
X152350800Y-104000000D03*
%TO.N,/CAM_CP*%
X151649200Y-104000000D03*
%TO.N,/CAM_DP0*%
X153149200Y-104000000D03*
%TO.N,/CAM_DN0*%
X153850800Y-104000000D03*
%TO.N,/CAM_DN1*%
X155350800Y-104000000D03*
%TO.N,/CAM_DP1*%
X154649200Y-104000000D03*
%TO.N,/CAM_DN2*%
X151050800Y-95200000D03*
%TO.N,/CAM_DP2*%
X150349200Y-95200000D03*
%TO.N,/CAM_DP3*%
X151349200Y-100358700D03*
%TO.N,/CAM_DN3*%
X152050800Y-100358700D03*
%TO.N,/CAM_CLK*%
X148150000Y-92050000D03*
%TO.N,/CAM_RST*%
X141000000Y-104900000D03*
X140750000Y-95500000D03*
X157600000Y-99600000D03*
X147000000Y-109400000D03*
%TO.N,/CAM_SDA*%
X145600000Y-94800000D03*
%TO.N,/CAM_SCL*%
X146200000Y-95400000D03*
%TD*%
D12*
%TO.N,+2V8*%
X154300000Y-90300000D02*
X149300000Y-90300000D01*
D13*
X149300000Y-91175000D02*
X149300000Y-90300000D01*
D12*
X156000000Y-92000000D02*
X154300000Y-90300000D01*
D14*
%TO.N,GND*%
X148000000Y-90200000D02*
X148200000Y-90200000D01*
D15*
X150100000Y-93825000D02*
X150100000Y-93000000D01*
X147700000Y-91800000D02*
X147600000Y-91900000D01*
D12*
X143400000Y-107200000D02*
X144600000Y-108400000D01*
D14*
X157100000Y-92800000D02*
X157100000Y-89900000D01*
D15*
X148900000Y-90602600D02*
X148797400Y-90500000D01*
X148500000Y-90500000D02*
X148200000Y-90200000D01*
X148900000Y-93825000D02*
X148900000Y-93000000D01*
X148500000Y-91175000D02*
X148500000Y-90500000D01*
X148797400Y-90500000D02*
X148500000Y-90500000D01*
X148900000Y-93000000D02*
X147600000Y-93000000D01*
X146700000Y-93000000D02*
X147600000Y-93000000D01*
X147700000Y-91175000D02*
X147700000Y-91800000D01*
X148900000Y-91175000D02*
X148900000Y-90602600D01*
D14*
X157100000Y-92800000D02*
X159300000Y-92800000D01*
D15*
X147700000Y-93825000D02*
X147700000Y-93100000D01*
X146500000Y-93200000D02*
X146700000Y-93000000D01*
D12*
X143400000Y-107000000D02*
X143400000Y-107200000D01*
D14*
X157100000Y-89900000D02*
X156500000Y-89300000D01*
D15*
X147600000Y-91900000D02*
X147600000Y-93000000D01*
X151300000Y-93825000D02*
X151300000Y-93100000D01*
D14*
X155600000Y-96200000D02*
X155700000Y-96300000D01*
D15*
X147700000Y-93100000D02*
X147600000Y-93000000D01*
X151300000Y-93100000D02*
X151200000Y-93000000D01*
D14*
X148200000Y-90400000D02*
X148200000Y-90200000D01*
D15*
X146500000Y-93825000D02*
X146500000Y-93200000D01*
X150100000Y-93000000D02*
X148900000Y-93000000D01*
X150100000Y-93000000D02*
X151200000Y-93000000D01*
D14*
X159300000Y-92800000D02*
X161100000Y-94600000D01*
D15*
%TO.N,+1V8*%
X147300000Y-90600000D02*
X146950000Y-90250000D01*
X147300000Y-91175000D02*
X147300000Y-90600000D01*
X146500000Y-90700000D02*
X146950000Y-90250000D01*
X146500000Y-91175000D02*
X146500000Y-90700000D01*
%TO.N,+1V2*%
X146900000Y-91175000D02*
X146900000Y-91950000D01*
D16*
%TO.N,/CAM_CN*%
X151330150Y-102979350D02*
X148249976Y-102979350D01*
X147220650Y-101950024D02*
X147220650Y-94376851D01*
X152350800Y-104000000D02*
X151330150Y-102979350D01*
X147300000Y-94297501D02*
X147300000Y-93825000D01*
X148249976Y-102979350D02*
X147220650Y-101950024D01*
X147220650Y-94376851D02*
X147300000Y-94297501D01*
%TO.N,/CAM_CP*%
X146900000Y-94297501D02*
X146900000Y-93825000D01*
X151649200Y-104000000D02*
X151649200Y-103639650D01*
X146979350Y-94376851D02*
X146900000Y-94297501D01*
X151649200Y-103639650D02*
X151230200Y-103220650D01*
X146979350Y-102049976D02*
X146979350Y-94376851D01*
X148150024Y-103220650D02*
X146979350Y-102049976D01*
X151230200Y-103220650D02*
X148150024Y-103220650D01*
%TO.N,/CAM_DP0*%
X153149200Y-103639650D02*
X151830200Y-102320650D01*
X153149200Y-104000000D02*
X153149200Y-103639650D01*
X148179350Y-101149976D02*
X148179350Y-94376851D01*
X149350024Y-102320650D02*
X148179350Y-101149976D01*
X148179350Y-94376851D02*
X148100000Y-94297501D01*
X151830200Y-102320650D02*
X149350024Y-102320650D01*
X148100000Y-94297501D02*
X148100000Y-93825000D01*
%TO.N,/CAM_DN0*%
X148420650Y-94376851D02*
X148500000Y-94297501D01*
X148420650Y-101050024D02*
X148420650Y-94376851D01*
X151930150Y-102079350D02*
X149449976Y-102079350D01*
X153850800Y-104000000D02*
X151930150Y-102079350D01*
X149449976Y-102079350D02*
X148420650Y-101050024D01*
X148500000Y-94297501D02*
X148500000Y-93825000D01*
%TO.N,/CAM_DN1*%
X155350800Y-104000000D02*
X152430150Y-101079350D01*
X152430150Y-101079350D02*
X150849976Y-101079350D01*
X149700000Y-94297501D02*
X149700000Y-93825000D01*
X149620650Y-99850024D02*
X149620650Y-94376851D01*
X150849976Y-101079350D02*
X149620650Y-99850024D01*
X149620650Y-94376851D02*
X149700000Y-94297501D01*
%TO.N,/CAM_DP1*%
X154649200Y-103639650D02*
X152330200Y-101320650D01*
X154649200Y-104000000D02*
X154649200Y-103639650D01*
X152330200Y-101320650D02*
X150750024Y-101320650D01*
X149379350Y-99949976D02*
X149379350Y-94376851D01*
X150750024Y-101320650D02*
X149379350Y-99949976D01*
X149300000Y-94297501D02*
X149300000Y-93825000D01*
X149379350Y-94376851D02*
X149300000Y-94297501D01*
%TO.N,/CAM_DN2*%
X150820650Y-94376851D02*
X150900000Y-94297501D01*
X151050800Y-95200000D02*
X150820650Y-94969850D01*
X150900000Y-94297501D02*
X150900000Y-93825000D01*
X150820650Y-94969850D02*
X150820650Y-94376851D01*
X150900000Y-94025000D02*
X150900000Y-93825000D01*
%TO.N,/CAM_DP2*%
X150349200Y-95200000D02*
X150579350Y-94969850D01*
X150500000Y-94025000D02*
X150500000Y-93825000D01*
X150579350Y-94969850D02*
X150579350Y-94376851D01*
X150500000Y-94297501D02*
X150500000Y-93825000D01*
X150579350Y-94376851D02*
X150500000Y-94297501D01*
%TO.N,/CAM_DP3*%
X151879350Y-98850024D02*
X151579350Y-99150024D01*
X151579350Y-99150024D02*
X151579350Y-100128550D01*
X151579350Y-100128550D02*
X151349200Y-100358700D01*
X151879350Y-92849976D02*
X151879350Y-98850024D01*
X150500000Y-91470626D02*
X151879350Y-92849976D01*
X150500000Y-91175000D02*
X150500000Y-91470626D01*
%TO.N,/CAM_DN3*%
X152120650Y-98949976D02*
X151820650Y-99249976D01*
X150900000Y-91529374D02*
X152120650Y-92750024D01*
X151820650Y-100128550D02*
X152050800Y-100358700D01*
X150900000Y-91175000D02*
X150900000Y-91529374D01*
X152120650Y-92750024D02*
X152120650Y-98949976D01*
X151820650Y-99249976D02*
X151820650Y-100128550D01*
D14*
%TO.N,/CAM_CLK*%
X148100000Y-92000000D02*
X148150000Y-92050000D01*
X148100000Y-91175000D02*
X148100000Y-92000000D01*
%TO.N,/CAM_RST*%
X142600000Y-98400000D02*
X142600000Y-97350000D01*
X142600000Y-104100000D02*
X142600000Y-108200000D01*
X142600000Y-97350000D02*
X140750000Y-95500000D01*
X142600000Y-98400000D02*
X142600000Y-104100000D01*
X141800000Y-104100000D02*
X142600000Y-104100000D01*
X157600000Y-99600000D02*
X157600000Y-107400000D01*
X157600000Y-107400000D02*
X155600000Y-109400000D01*
X141000000Y-104900000D02*
X141800000Y-104100000D01*
X142600000Y-108200000D02*
X143800000Y-109400000D01*
X155600000Y-109400000D02*
X147000000Y-109400000D01*
X143800000Y-109400000D02*
X147000000Y-109400000D01*
%TO.N,/CAM_SDA*%
X145700000Y-94700000D02*
X145700000Y-93825000D01*
X145600000Y-94800000D02*
X145700000Y-94700000D01*
%TO.N,/CAM_SCL*%
X146200000Y-95400000D02*
X146100000Y-95300000D01*
X146100000Y-95300000D02*
X146100000Y-93825000D01*
%TD*%
%TA.AperFunction,Conductor*%
%TO.N,GND*%
G36*
X156721973Y-87788718D02*
G01*
X156770274Y-87806410D01*
X156775048Y-87810798D01*
X158477529Y-89516757D01*
X158499220Y-89563398D01*
X158499500Y-89569876D01*
X158499500Y-89631120D01*
X158533730Y-89891116D01*
X158596448Y-90125185D01*
X158601603Y-90144421D01*
X158601603Y-90144422D01*
X158701957Y-90386698D01*
X158833077Y-90613805D01*
X158912582Y-90717417D01*
X158992718Y-90821851D01*
X158992722Y-90821855D01*
X158992730Y-90821864D01*
X159178135Y-91007269D01*
X159178143Y-91007276D01*
X159178149Y-91007282D01*
X159386197Y-91166924D01*
X159507819Y-91237142D01*
X159597177Y-91288733D01*
X159613303Y-91298043D01*
X159855581Y-91398398D01*
X160108884Y-91466270D01*
X160368880Y-91500500D01*
X160368883Y-91500500D01*
X160426034Y-91500500D01*
X160474372Y-91518093D01*
X160479263Y-91522580D01*
X161357789Y-92402900D01*
X162174882Y-93221663D01*
X162228029Y-93274918D01*
X162249720Y-93321560D01*
X162250000Y-93328038D01*
X162250000Y-101272932D01*
X162232407Y-101321270D01*
X162187858Y-101346990D01*
X162137200Y-101338057D01*
X162115140Y-101318711D01*
X162080012Y-101272932D01*
X162007282Y-101178149D01*
X162007276Y-101178143D01*
X162007269Y-101178135D01*
X161821864Y-100992730D01*
X161821856Y-100992723D01*
X161821851Y-100992718D01*
X161735697Y-100926609D01*
X161613805Y-100833077D01*
X161386698Y-100701957D01*
X161144422Y-100601603D01*
X161144420Y-100601602D01*
X161144419Y-100601602D01*
X160891116Y-100533730D01*
X160631120Y-100499500D01*
X160368880Y-100499500D01*
X160108884Y-100533730D01*
X160108880Y-100533731D01*
X160108879Y-100533731D01*
X159948294Y-100576759D01*
X159855581Y-100601602D01*
X159855579Y-100601602D01*
X159855578Y-100601603D01*
X159855577Y-100601603D01*
X159613301Y-100701957D01*
X159386194Y-100833077D01*
X159178151Y-100992716D01*
X159178135Y-100992730D01*
X158992730Y-101178135D01*
X158992716Y-101178151D01*
X158833077Y-101386194D01*
X158701957Y-101613301D01*
X158601603Y-101855577D01*
X158601603Y-101855578D01*
X158601602Y-101855581D01*
X158533730Y-102108884D01*
X158499500Y-102368880D01*
X158499500Y-102631120D01*
X158533730Y-102891116D01*
X158533731Y-102891119D01*
X158533731Y-102891120D01*
X158601603Y-103144421D01*
X158601603Y-103144422D01*
X158701957Y-103386698D01*
X158833077Y-103613805D01*
X158916032Y-103721913D01*
X158992718Y-103821851D01*
X158992723Y-103821856D01*
X158992730Y-103821864D01*
X159178135Y-104007269D01*
X159178143Y-104007276D01*
X159178149Y-104007282D01*
X159386197Y-104166924D01*
X159613303Y-104298043D01*
X159855581Y-104398398D01*
X160108884Y-104466270D01*
X160368880Y-104500500D01*
X160368883Y-104500500D01*
X160631117Y-104500500D01*
X160631120Y-104500500D01*
X160891116Y-104466270D01*
X161144419Y-104398398D01*
X161386697Y-104298043D01*
X161613803Y-104166924D01*
X161821851Y-104007282D01*
X162007282Y-103821851D01*
X162115141Y-103681287D01*
X162158524Y-103653649D01*
X162209524Y-103660364D01*
X162244276Y-103698289D01*
X162250000Y-103727067D01*
X162250000Y-110898934D01*
X162248555Y-110913606D01*
X162239145Y-110960910D01*
X162236599Y-110970411D01*
X162220142Y-111018890D01*
X162202107Y-111047891D01*
X161047891Y-112202107D01*
X161018890Y-112220142D01*
X160970411Y-112236599D01*
X160960910Y-112239145D01*
X160924600Y-112246368D01*
X160913604Y-112248555D01*
X160898935Y-112250000D01*
X139531148Y-112250000D01*
X139482810Y-112232407D01*
X139477974Y-112227974D01*
X137772026Y-110522026D01*
X137750286Y-110475406D01*
X137750000Y-110468852D01*
X137750000Y-103727067D01*
X137767593Y-103678729D01*
X137812142Y-103653009D01*
X137862800Y-103661942D01*
X137884858Y-103681286D01*
X137916033Y-103721914D01*
X137992716Y-103821849D01*
X137992730Y-103821864D01*
X138178135Y-104007269D01*
X138178143Y-104007276D01*
X138178149Y-104007282D01*
X138386197Y-104166924D01*
X138613303Y-104298043D01*
X138855581Y-104398398D01*
X139108884Y-104466270D01*
X139368880Y-104500500D01*
X139368883Y-104500500D01*
X139631117Y-104500500D01*
X139631120Y-104500500D01*
X139891116Y-104466270D01*
X140144419Y-104398398D01*
X140386697Y-104298043D01*
X140613803Y-104166924D01*
X140821851Y-104007282D01*
X141007282Y-103821851D01*
X141166924Y-103613803D01*
X141298043Y-103386697D01*
X141398398Y-103144419D01*
X141466270Y-102891116D01*
X141500500Y-102631120D01*
X141500500Y-102368880D01*
X141466270Y-102108884D01*
X141398398Y-101855581D01*
X141298043Y-101613303D01*
X141166924Y-101386197D01*
X141131195Y-101339635D01*
X141080012Y-101272932D01*
X141007282Y-101178149D01*
X141007276Y-101178143D01*
X141007269Y-101178135D01*
X140821864Y-100992730D01*
X140821856Y-100992723D01*
X140821851Y-100992718D01*
X140735697Y-100926609D01*
X140613805Y-100833077D01*
X140386698Y-100701957D01*
X140144422Y-100601603D01*
X140144420Y-100601602D01*
X140144419Y-100601602D01*
X139891116Y-100533730D01*
X139631120Y-100499500D01*
X139368880Y-100499500D01*
X139108884Y-100533730D01*
X139108880Y-100533731D01*
X139108879Y-100533731D01*
X138948294Y-100576759D01*
X138855581Y-100601602D01*
X138855579Y-100601602D01*
X138855578Y-100601603D01*
X138855577Y-100601603D01*
X138613301Y-100701957D01*
X138386194Y-100833077D01*
X138178151Y-100992716D01*
X138178135Y-100992730D01*
X137992730Y-101178135D01*
X137992716Y-101178151D01*
X137884860Y-101318711D01*
X137841476Y-101346350D01*
X137790476Y-101339635D01*
X137755724Y-101301709D01*
X137750000Y-101272932D01*
X137750000Y-95440375D01*
X140297100Y-95440375D01*
X140297100Y-95559625D01*
X140313823Y-95622036D01*
X140327964Y-95674813D01*
X140327964Y-95674814D01*
X140387589Y-95778087D01*
X140471912Y-95862410D01*
X140531538Y-95896834D01*
X140575187Y-95922036D01*
X140690375Y-95952900D01*
X140690378Y-95952900D01*
X140809622Y-95952900D01*
X140809625Y-95952900D01*
X140822328Y-95949496D01*
X140873570Y-95953980D01*
X140894963Y-95968960D01*
X142348874Y-97422871D01*
X142370614Y-97469491D01*
X142370900Y-97476045D01*
X142370900Y-103795700D01*
X142353307Y-103844038D01*
X142308758Y-103869758D01*
X142295700Y-103870900D01*
X141754427Y-103870900D01*
X141719550Y-103885347D01*
X141670228Y-103905777D01*
X141670220Y-103905782D01*
X141144963Y-104431039D01*
X141098343Y-104452779D01*
X141072329Y-104450504D01*
X141059625Y-104447100D01*
X140940375Y-104447100D01*
X140853984Y-104470248D01*
X140825186Y-104477964D01*
X140825185Y-104477964D01*
X140721912Y-104537589D01*
X140637589Y-104621912D01*
X140577964Y-104725185D01*
X140577964Y-104725186D01*
X140577964Y-104725187D01*
X140547100Y-104840375D01*
X140547100Y-104959625D01*
X140577964Y-105074813D01*
X140577964Y-105074814D01*
X140637589Y-105178087D01*
X140721912Y-105262410D01*
X140781538Y-105296834D01*
X140825187Y-105322036D01*
X140940375Y-105352900D01*
X140940378Y-105352900D01*
X141059622Y-105352900D01*
X141059625Y-105352900D01*
X141174813Y-105322036D01*
X141278087Y-105262410D01*
X141362410Y-105178087D01*
X141422036Y-105074813D01*
X141452900Y-104959625D01*
X141452900Y-104840375D01*
X141449496Y-104827672D01*
X141453977Y-104776431D01*
X141468954Y-104755040D01*
X141872871Y-104351124D01*
X141919490Y-104329386D01*
X141926044Y-104329100D01*
X142295700Y-104329100D01*
X142344038Y-104346693D01*
X142369758Y-104391242D01*
X142370900Y-104404300D01*
X142370900Y-108245570D01*
X142405778Y-108329776D01*
X143670223Y-109594221D01*
X143670225Y-109594222D01*
X143720896Y-109615210D01*
X143720899Y-109615211D01*
X143720900Y-109615212D01*
X143734788Y-109620964D01*
X143754429Y-109629100D01*
X143754430Y-109629100D01*
X143845570Y-109629100D01*
X146565890Y-109629100D01*
X146614228Y-109646693D01*
X146631015Y-109666700D01*
X146637589Y-109678087D01*
X146721912Y-109762410D01*
X146781538Y-109796834D01*
X146825187Y-109822036D01*
X146940375Y-109852900D01*
X146940378Y-109852900D01*
X147059622Y-109852900D01*
X147059625Y-109852900D01*
X147174813Y-109822036D01*
X147278087Y-109762410D01*
X147362410Y-109678087D01*
X147368985Y-109666700D01*
X147408390Y-109633635D01*
X147434110Y-109629100D01*
X155645570Y-109629100D01*
X155645571Y-109629100D01*
X155679099Y-109615212D01*
X155729775Y-109594222D01*
X157794222Y-107529775D01*
X157829100Y-107445570D01*
X157829100Y-107354430D01*
X157829100Y-100034109D01*
X157846693Y-99985771D01*
X157866700Y-99968984D01*
X157878087Y-99962410D01*
X157962410Y-99878087D01*
X158022036Y-99774813D01*
X158052900Y-99659625D01*
X158052900Y-99540375D01*
X158022036Y-99425187D01*
X157992131Y-99373390D01*
X157962410Y-99321912D01*
X157878087Y-99237589D01*
X157774813Y-99177964D01*
X157659625Y-99147100D01*
X157540375Y-99147100D01*
X157453984Y-99170248D01*
X157425186Y-99177964D01*
X157425185Y-99177964D01*
X157321912Y-99237589D01*
X157237589Y-99321912D01*
X157177964Y-99425185D01*
X157177964Y-99425186D01*
X157177964Y-99425187D01*
X157147100Y-99540375D01*
X157147100Y-99659625D01*
X157165048Y-99726609D01*
X157177964Y-99774813D01*
X157177964Y-99774814D01*
X157237589Y-99878087D01*
X157321911Y-99962409D01*
X157321913Y-99962410D01*
X157333298Y-99968983D01*
X157366364Y-100008386D01*
X157370900Y-100034109D01*
X157370900Y-107273955D01*
X157353307Y-107322293D01*
X157348874Y-107327129D01*
X155527129Y-109148874D01*
X155480509Y-109170614D01*
X155473955Y-109170900D01*
X147434110Y-109170900D01*
X147385772Y-109153307D01*
X147368985Y-109133300D01*
X147362410Y-109121912D01*
X147278087Y-109037589D01*
X147174813Y-108977964D01*
X147059625Y-108947100D01*
X146940375Y-108947100D01*
X146853984Y-108970248D01*
X146825186Y-108977964D01*
X146825185Y-108977964D01*
X146721912Y-109037589D01*
X146637589Y-109121912D01*
X146631015Y-109133300D01*
X146591610Y-109166365D01*
X146565890Y-109170900D01*
X143926045Y-109170900D01*
X143877707Y-109153307D01*
X143872871Y-109148874D01*
X142851126Y-108127129D01*
X142829386Y-108080509D01*
X142829100Y-108073955D01*
X142829100Y-97304428D01*
X142829099Y-97304427D01*
X142818884Y-97279766D01*
X142794222Y-97220225D01*
X142794221Y-97220224D01*
X142794221Y-97220223D01*
X141218960Y-95644963D01*
X141197220Y-95598343D01*
X141199495Y-95572330D01*
X141202900Y-95559625D01*
X141202900Y-95440375D01*
X141172036Y-95325187D01*
X141136453Y-95263556D01*
X141112410Y-95221912D01*
X141028087Y-95137589D01*
X140924813Y-95077964D01*
X140809625Y-95047100D01*
X140690375Y-95047100D01*
X140603984Y-95070248D01*
X140575186Y-95077964D01*
X140575185Y-95077964D01*
X140471912Y-95137589D01*
X140387589Y-95221912D01*
X140327964Y-95325185D01*
X140327964Y-95325186D01*
X140317676Y-95363583D01*
X140297100Y-95440375D01*
X137750000Y-95440375D01*
X137750000Y-94740375D01*
X145147100Y-94740375D01*
X145147100Y-94859625D01*
X145165212Y-94927221D01*
X145177964Y-94974813D01*
X145177964Y-94974814D01*
X145237589Y-95078087D01*
X145321912Y-95162410D01*
X145348236Y-95177608D01*
X145425187Y-95222036D01*
X145540375Y-95252900D01*
X145540378Y-95252900D01*
X145659622Y-95252900D01*
X145659625Y-95252900D01*
X145659627Y-95252899D01*
X145663188Y-95252430D01*
X145713410Y-95263556D01*
X145744730Y-95304362D01*
X145747571Y-95336801D01*
X145747100Y-95340372D01*
X145747100Y-95340375D01*
X145747100Y-95459625D01*
X145774641Y-95562410D01*
X145777964Y-95574813D01*
X145777964Y-95574814D01*
X145837589Y-95678087D01*
X145921912Y-95762410D01*
X145981538Y-95796834D01*
X146025187Y-95822036D01*
X146140375Y-95852900D01*
X146140378Y-95852900D01*
X146259622Y-95852900D01*
X146259625Y-95852900D01*
X146374813Y-95822036D01*
X146478087Y-95762410D01*
X146562410Y-95678087D01*
X146616275Y-95584790D01*
X146655680Y-95551726D01*
X146707120Y-95551726D01*
X146746525Y-95584791D01*
X146756600Y-95622391D01*
X146756600Y-102094283D01*
X146790511Y-102176155D01*
X147961186Y-103346828D01*
X148023846Y-103409488D01*
X148105716Y-103443400D01*
X148105717Y-103443400D01*
X148194331Y-103443400D01*
X151106784Y-103443400D01*
X151155122Y-103460993D01*
X151159958Y-103465425D01*
X151242449Y-103547916D01*
X151298443Y-103603909D01*
X151320183Y-103650530D01*
X151306869Y-103700217D01*
X151298445Y-103710257D01*
X151286788Y-103721914D01*
X151227164Y-103825185D01*
X151227164Y-103825186D01*
X151227164Y-103825187D01*
X151196300Y-103940375D01*
X151196300Y-104059625D01*
X151225050Y-104166922D01*
X151227164Y-104174813D01*
X151227164Y-104174814D01*
X151286789Y-104278087D01*
X151371112Y-104362410D01*
X151421051Y-104391242D01*
X151474387Y-104422036D01*
X151589575Y-104452900D01*
X151589578Y-104452900D01*
X151708822Y-104452900D01*
X151708825Y-104452900D01*
X151824013Y-104422036D01*
X151927287Y-104362410D01*
X151946825Y-104342871D01*
X151993444Y-104321131D01*
X152043132Y-104334444D01*
X152053169Y-104342866D01*
X152072713Y-104362410D01*
X152175987Y-104422036D01*
X152291175Y-104452900D01*
X152291178Y-104452900D01*
X152410422Y-104452900D01*
X152410425Y-104452900D01*
X152525613Y-104422036D01*
X152628887Y-104362410D01*
X152662197Y-104329100D01*
X152696826Y-104294472D01*
X152743446Y-104272732D01*
X152793133Y-104286046D01*
X152803174Y-104294472D01*
X152871112Y-104362410D01*
X152921051Y-104391242D01*
X152974387Y-104422036D01*
X153089575Y-104452900D01*
X153089578Y-104452900D01*
X153208822Y-104452900D01*
X153208825Y-104452900D01*
X153324013Y-104422036D01*
X153427287Y-104362410D01*
X153446825Y-104342871D01*
X153493444Y-104321131D01*
X153543132Y-104334444D01*
X153553169Y-104342866D01*
X153572713Y-104362410D01*
X153675987Y-104422036D01*
X153791175Y-104452900D01*
X153791178Y-104452900D01*
X153910422Y-104452900D01*
X153910425Y-104452900D01*
X154025613Y-104422036D01*
X154128887Y-104362410D01*
X154162197Y-104329100D01*
X154196826Y-104294472D01*
X154243446Y-104272732D01*
X154293133Y-104286046D01*
X154303174Y-104294472D01*
X154371112Y-104362410D01*
X154421051Y-104391242D01*
X154474387Y-104422036D01*
X154589575Y-104452900D01*
X154589578Y-104452900D01*
X154708822Y-104452900D01*
X154708825Y-104452900D01*
X154824013Y-104422036D01*
X154927287Y-104362410D01*
X154946825Y-104342871D01*
X154993444Y-104321131D01*
X155043132Y-104334444D01*
X155053169Y-104342866D01*
X155072713Y-104362410D01*
X155175987Y-104422036D01*
X155291175Y-104452900D01*
X155291178Y-104452900D01*
X155410422Y-104452900D01*
X155410425Y-104452900D01*
X155525613Y-104422036D01*
X155628887Y-104362410D01*
X155713210Y-104278087D01*
X155772836Y-104174813D01*
X155803700Y-104059625D01*
X155803700Y-103940375D01*
X155772836Y-103825187D01*
X155772835Y-103825185D01*
X155713210Y-103721912D01*
X155628887Y-103637589D01*
X155525613Y-103577964D01*
X155410425Y-103547100D01*
X155291175Y-103547100D01*
X155291173Y-103547100D01*
X155271385Y-103552401D01*
X155220141Y-103547914D01*
X155198752Y-103532936D01*
X152556329Y-100890511D01*
X152496718Y-100865820D01*
X152496716Y-100865819D01*
X152485527Y-100861185D01*
X152474458Y-100856600D01*
X152371093Y-100856600D01*
X152368341Y-100856398D01*
X152347245Y-100846918D01*
X152325508Y-100839007D01*
X152324060Y-100836500D01*
X152321421Y-100835314D01*
X152311354Y-100814491D01*
X152299788Y-100794458D01*
X152300290Y-100791607D01*
X152299031Y-100789002D01*
X152304704Y-100766579D01*
X152308721Y-100743800D01*
X152311175Y-100741000D01*
X152311648Y-100739134D01*
X152314817Y-100736848D01*
X152325486Y-100724680D01*
X152325402Y-100724596D01*
X152326695Y-100723302D01*
X152328063Y-100721743D01*
X152328888Y-100721109D01*
X152413210Y-100636787D01*
X152472710Y-100533731D01*
X152472836Y-100533513D01*
X152503700Y-100418325D01*
X152503700Y-100299075D01*
X152472836Y-100183887D01*
X152472835Y-100183885D01*
X152413210Y-100080612D01*
X152328887Y-99996289D01*
X152225613Y-99936664D01*
X152110421Y-99905799D01*
X152108777Y-99905583D01*
X152107891Y-99905121D01*
X152105664Y-99904525D01*
X152105796Y-99904031D01*
X152063151Y-99881826D01*
X152043471Y-99834299D01*
X152043400Y-99831027D01*
X152043400Y-99373390D01*
X152060993Y-99325052D01*
X152065415Y-99320226D01*
X152309488Y-99076154D01*
X152343400Y-98994283D01*
X152343400Y-98905669D01*
X152343400Y-92705716D01*
X152324935Y-92661138D01*
X152309489Y-92623847D01*
X152309488Y-92623846D01*
X152309488Y-92623845D01*
X151554076Y-91868434D01*
X151532336Y-91821814D01*
X151545650Y-91772127D01*
X151576879Y-91746466D01*
X151587477Y-91741786D01*
X151587482Y-91741783D01*
X151666783Y-91662482D01*
X151666786Y-91662477D01*
X151712089Y-91559874D01*
X151712090Y-91559873D01*
X151715000Y-91534790D01*
X151715000Y-91290000D01*
X151375200Y-91290000D01*
X151356840Y-91283317D01*
X151337600Y-91279925D01*
X151333239Y-91274728D01*
X151326862Y-91272407D01*
X151317092Y-91255484D01*
X151304535Y-91240520D01*
X151302812Y-91230751D01*
X151301142Y-91227858D01*
X151300000Y-91214800D01*
X151300000Y-91135200D01*
X151317593Y-91086862D01*
X151362142Y-91061142D01*
X151375200Y-91060000D01*
X151714999Y-91060000D01*
X151714999Y-90815214D01*
X151712164Y-90790760D01*
X151724074Y-90740718D01*
X151765364Y-90710039D01*
X151786864Y-90706900D01*
X154100308Y-90706900D01*
X154148646Y-90724493D01*
X154153482Y-90728926D01*
X155555879Y-92131323D01*
X155575341Y-92165029D01*
X155577961Y-92174805D01*
X155577964Y-92174814D01*
X155637589Y-92278087D01*
X155721912Y-92362410D01*
X155781538Y-92396834D01*
X155825187Y-92422036D01*
X155940375Y-92452900D01*
X155940378Y-92452900D01*
X156059622Y-92452900D01*
X156059625Y-92452900D01*
X156174813Y-92422036D01*
X156278087Y-92362410D01*
X156362410Y-92278087D01*
X156422036Y-92174813D01*
X156452900Y-92059625D01*
X156452900Y-91940375D01*
X156422036Y-91825187D01*
X156420089Y-91821814D01*
X156362410Y-91721912D01*
X156278087Y-91637589D01*
X156174814Y-91577964D01*
X156174805Y-91577961D01*
X156165029Y-91575341D01*
X156131323Y-91555879D01*
X154549847Y-89974402D01*
X154549841Y-89974398D01*
X154457059Y-89920830D01*
X154422562Y-89911586D01*
X154353570Y-89893100D01*
X154353569Y-89893100D01*
X154353568Y-89893100D01*
X149521179Y-89893100D01*
X149483580Y-89883026D01*
X149474813Y-89877964D01*
X149359625Y-89847100D01*
X149240375Y-89847100D01*
X149153984Y-89870248D01*
X149125186Y-89877964D01*
X149125185Y-89877964D01*
X149021912Y-89937589D01*
X148937589Y-90021912D01*
X148877964Y-90125185D01*
X148877964Y-90125186D01*
X148877964Y-90125187D01*
X148847100Y-90240375D01*
X148847100Y-90359625D01*
X148854060Y-90385599D01*
X148875425Y-90465338D01*
X148875267Y-90467138D01*
X148876235Y-90468664D01*
X148873043Y-90492557D01*
X148870941Y-90516582D01*
X148869663Y-90517859D01*
X148869424Y-90519651D01*
X148851614Y-90535907D01*
X148834567Y-90552955D01*
X148832346Y-90553496D01*
X148831432Y-90554331D01*
X148818062Y-90556977D01*
X148805924Y-90559935D01*
X148703136Y-90564226D01*
X148695057Y-90561661D01*
X148690714Y-90561661D01*
X148690494Y-90563562D01*
X148659791Y-90560000D01*
X148615000Y-90560000D01*
X148615000Y-91099800D01*
X148609384Y-91115230D01*
X148607951Y-91131589D01*
X148600844Y-91138694D01*
X148597407Y-91148138D01*
X148583184Y-91156349D01*
X148571573Y-91167958D01*
X148557783Y-91171014D01*
X148552858Y-91173858D01*
X148546345Y-91174715D01*
X148495311Y-91179173D01*
X148449652Y-91200465D01*
X148399965Y-91187150D01*
X148370461Y-91145013D01*
X148367899Y-91125551D01*
X148367899Y-91108249D01*
X148373514Y-91092818D01*
X148374948Y-91076460D01*
X148382054Y-91069354D01*
X148385000Y-91061262D01*
X148385000Y-90559999D01*
X148340215Y-90560000D01*
X148315124Y-90562910D01*
X148212520Y-90608214D01*
X148212517Y-90608216D01*
X148153174Y-90667560D01*
X148106554Y-90689300D01*
X148056867Y-90675986D01*
X148046826Y-90667560D01*
X147987482Y-90608216D01*
X147987477Y-90608213D01*
X147884874Y-90562910D01*
X147884873Y-90562909D01*
X147859791Y-90560000D01*
X147815000Y-90560000D01*
X147815000Y-91065638D01*
X147817011Y-91069951D01*
X147827565Y-91082529D01*
X147830415Y-91098696D01*
X147831814Y-91101695D01*
X147832100Y-91108249D01*
X147832100Y-91241750D01*
X147815000Y-91288733D01*
X147815000Y-91713354D01*
X147797407Y-91761692D01*
X147792974Y-91766528D01*
X147787589Y-91771912D01*
X147727964Y-91875185D01*
X147727964Y-91875186D01*
X147727964Y-91875187D01*
X147697100Y-91990375D01*
X147697100Y-92109625D01*
X147714565Y-92174805D01*
X147727964Y-92224813D01*
X147727964Y-92224814D01*
X147787589Y-92328087D01*
X147871912Y-92412410D01*
X147931538Y-92446834D01*
X147975187Y-92472036D01*
X148090375Y-92502900D01*
X148090378Y-92502900D01*
X148209622Y-92502900D01*
X148209625Y-92502900D01*
X148324813Y-92472036D01*
X148428087Y-92412410D01*
X148512410Y-92328087D01*
X148572036Y-92224813D01*
X148602900Y-92109625D01*
X148602900Y-91990375D01*
X148574574Y-91884659D01*
X148574595Y-91884416D01*
X148574456Y-91884215D01*
X148576831Y-91858866D01*
X148579058Y-91833418D01*
X148579232Y-91833243D01*
X148579255Y-91832999D01*
X148597430Y-91815045D01*
X148615431Y-91797045D01*
X148615735Y-91796964D01*
X148615851Y-91796850D01*
X148617664Y-91796453D01*
X148641119Y-91790246D01*
X148693907Y-91785955D01*
X148702679Y-91788363D01*
X148709281Y-91788363D01*
X148709505Y-91786438D01*
X148740208Y-91789999D01*
X148784999Y-91789998D01*
X148785000Y-91789998D01*
X148785000Y-91250200D01*
X148791682Y-91231840D01*
X148795075Y-91212600D01*
X148800271Y-91208239D01*
X148802593Y-91201862D01*
X148819515Y-91192092D01*
X148834480Y-91179535D01*
X148844248Y-91177812D01*
X148847142Y-91176142D01*
X148860200Y-91175000D01*
X148939800Y-91175000D01*
X148988138Y-91192593D01*
X149013858Y-91237142D01*
X149015000Y-91250200D01*
X149015000Y-91789999D01*
X149059785Y-91789999D01*
X149084875Y-91787089D01*
X149187479Y-91741785D01*
X149187482Y-91741783D01*
X149264341Y-91664925D01*
X149310961Y-91643185D01*
X149317505Y-91642899D01*
X149430056Y-91642899D01*
X149474658Y-91634028D01*
X149474658Y-91634027D01*
X149481923Y-91632583D01*
X149482396Y-91634964D01*
X149517912Y-91633411D01*
X149518077Y-91632583D01*
X149521461Y-91633256D01*
X149522609Y-91633206D01*
X149524295Y-91633820D01*
X149530047Y-91634964D01*
X149569943Y-91642900D01*
X149682485Y-91642899D01*
X149730822Y-91660492D01*
X149735659Y-91664925D01*
X149812517Y-91741783D01*
X149812522Y-91741786D01*
X149915125Y-91787089D01*
X149915126Y-91787090D01*
X149940208Y-91789999D01*
X149984999Y-91789998D01*
X149985000Y-91789998D01*
X149985000Y-91250200D01*
X149991682Y-91231840D01*
X149995075Y-91212600D01*
X150000271Y-91208239D01*
X150002593Y-91201862D01*
X150019515Y-91192092D01*
X150034480Y-91179535D01*
X150044248Y-91177812D01*
X150047142Y-91176142D01*
X150060200Y-91175000D01*
X150139800Y-91175000D01*
X150188138Y-91192593D01*
X150213858Y-91237142D01*
X150215000Y-91250200D01*
X150215000Y-91789999D01*
X150259785Y-91789999D01*
X150284876Y-91787089D01*
X150284879Y-91787088D01*
X150387988Y-91741561D01*
X150439313Y-91738130D01*
X150471534Y-91757177D01*
X151026768Y-92312410D01*
X151634574Y-92920216D01*
X151656314Y-92966836D01*
X151656600Y-92973390D01*
X151656600Y-93173325D01*
X151639007Y-93221663D01*
X151594458Y-93247383D01*
X151551026Y-93242118D01*
X151484874Y-93212910D01*
X151484873Y-93212909D01*
X151459791Y-93210000D01*
X151415000Y-93210000D01*
X151415000Y-94439999D01*
X151459785Y-94439999D01*
X151484876Y-94437089D01*
X151484877Y-94437089D01*
X151551024Y-94407882D01*
X151602350Y-94404451D01*
X151643872Y-94434814D01*
X151656600Y-94476674D01*
X151656600Y-98726608D01*
X151639007Y-98774946D01*
X151634574Y-98779782D01*
X151390511Y-99023844D01*
X151375065Y-99061137D01*
X151356600Y-99105715D01*
X151356600Y-99831027D01*
X151339007Y-99879365D01*
X151294458Y-99905085D01*
X151291223Y-99905583D01*
X151289578Y-99905799D01*
X151174386Y-99936664D01*
X151174385Y-99936664D01*
X151071112Y-99996289D01*
X150986789Y-100080612D01*
X150927164Y-100183885D01*
X150927164Y-100183886D01*
X150927164Y-100183887D01*
X150896300Y-100299075D01*
X150896300Y-100418325D01*
X150927164Y-100533513D01*
X150927164Y-100533514D01*
X150986789Y-100636787D01*
X151071111Y-100721109D01*
X151071937Y-100721743D01*
X151072273Y-100722271D01*
X151074598Y-100724596D01*
X151074082Y-100725111D01*
X151099573Y-100765129D01*
X151092855Y-100816128D01*
X151054927Y-100850878D01*
X151026154Y-100856600D01*
X150973390Y-100856600D01*
X150925052Y-100839007D01*
X150920216Y-100834574D01*
X149865426Y-99779783D01*
X149843686Y-99733163D01*
X149843400Y-99726609D01*
X149843400Y-95510379D01*
X149860993Y-95462041D01*
X149905542Y-95436321D01*
X149956200Y-95445254D01*
X149983726Y-95472780D01*
X149986790Y-95478088D01*
X150071112Y-95562410D01*
X150130738Y-95596834D01*
X150174387Y-95622036D01*
X150289575Y-95652900D01*
X150289578Y-95652900D01*
X150408822Y-95652900D01*
X150408825Y-95652900D01*
X150524013Y-95622036D01*
X150627287Y-95562410D01*
X150646825Y-95542871D01*
X150693444Y-95521131D01*
X150743132Y-95534444D01*
X150753169Y-95542866D01*
X150772713Y-95562410D01*
X150875987Y-95622036D01*
X150991175Y-95652900D01*
X150991178Y-95652900D01*
X151110422Y-95652900D01*
X151110425Y-95652900D01*
X151225613Y-95622036D01*
X151328887Y-95562410D01*
X151413210Y-95478087D01*
X151472836Y-95374813D01*
X151503700Y-95259625D01*
X151503700Y-95140375D01*
X151472836Y-95025187D01*
X151472835Y-95025185D01*
X151413210Y-94921912D01*
X151328887Y-94837589D01*
X151225613Y-94777964D01*
X151110421Y-94747099D01*
X151108777Y-94746883D01*
X151107891Y-94746421D01*
X151105664Y-94745825D01*
X151105796Y-94745331D01*
X151063151Y-94723126D01*
X151043471Y-94675599D01*
X151043400Y-94672327D01*
X151043400Y-94513197D01*
X151060993Y-94464859D01*
X151105542Y-94439139D01*
X151127268Y-94438498D01*
X151140211Y-94439999D01*
X151184999Y-94439998D01*
X151185000Y-94439998D01*
X151185000Y-93209999D01*
X151140215Y-93210000D01*
X151115124Y-93212910D01*
X151012520Y-93258214D01*
X151012517Y-93258216D01*
X150935660Y-93335074D01*
X150889040Y-93356814D01*
X150882487Y-93357100D01*
X150769944Y-93357100D01*
X150769942Y-93357101D01*
X150737866Y-93363480D01*
X150725342Y-93365972D01*
X150725341Y-93365972D01*
X150718078Y-93367417D01*
X150717604Y-93365038D01*
X150682086Y-93366583D01*
X150681921Y-93367417D01*
X150678514Y-93366739D01*
X150677375Y-93366789D01*
X150675702Y-93366179D01*
X150630057Y-93357100D01*
X150517514Y-93357100D01*
X150469176Y-93339507D01*
X150464340Y-93335074D01*
X150387482Y-93258216D01*
X150387477Y-93258213D01*
X150284874Y-93212910D01*
X150284873Y-93212909D01*
X150259791Y-93210000D01*
X150215000Y-93210000D01*
X150215000Y-94439999D01*
X150259787Y-94439999D01*
X150272734Y-94438497D01*
X150322777Y-94450403D01*
X150353459Y-94491690D01*
X150356600Y-94513196D01*
X150356600Y-94672327D01*
X150339007Y-94720665D01*
X150294458Y-94746385D01*
X150291223Y-94746883D01*
X150289578Y-94747099D01*
X150174386Y-94777964D01*
X150174385Y-94777964D01*
X150071112Y-94837589D01*
X149986787Y-94921914D01*
X149983724Y-94927221D01*
X149944318Y-94960285D01*
X149892878Y-94960284D01*
X149853474Y-94927219D01*
X149843400Y-94889620D01*
X149843400Y-94513197D01*
X149860993Y-94464859D01*
X149905542Y-94439139D01*
X149927268Y-94438498D01*
X149940211Y-94439999D01*
X149984999Y-94439998D01*
X149985000Y-94439998D01*
X149985000Y-93209999D01*
X149940215Y-93210000D01*
X149915124Y-93212910D01*
X149812520Y-93258214D01*
X149812517Y-93258216D01*
X149735660Y-93335074D01*
X149689040Y-93356814D01*
X149682487Y-93357100D01*
X149569944Y-93357100D01*
X149569942Y-93357101D01*
X149537866Y-93363480D01*
X149525342Y-93365972D01*
X149525341Y-93365972D01*
X149518078Y-93367417D01*
X149517604Y-93365038D01*
X149482086Y-93366583D01*
X149481921Y-93367417D01*
X149478514Y-93366739D01*
X149477375Y-93366789D01*
X149475702Y-93366179D01*
X149430057Y-93357100D01*
X149317514Y-93357100D01*
X149269176Y-93339507D01*
X149264340Y-93335074D01*
X149187482Y-93258216D01*
X149187477Y-93258213D01*
X149084874Y-93212910D01*
X149084873Y-93212909D01*
X149059791Y-93210000D01*
X149015000Y-93210000D01*
X149015000Y-94439999D01*
X149059787Y-94439999D01*
X149072734Y-94438497D01*
X149122777Y-94450403D01*
X149153459Y-94491690D01*
X149156600Y-94513196D01*
X149156600Y-99994283D01*
X149190511Y-100076155D01*
X150623845Y-101509488D01*
X150623847Y-101509489D01*
X150671804Y-101529353D01*
X150671809Y-101529354D01*
X150705716Y-101543400D01*
X150705717Y-101543400D01*
X150794331Y-101543400D01*
X152206785Y-101543400D01*
X152255123Y-101560993D01*
X152259959Y-101565426D01*
X153259959Y-102565426D01*
X154205851Y-103511317D01*
X154227591Y-103557937D01*
X154214277Y-103607624D01*
X154172140Y-103637129D01*
X154120896Y-103632645D01*
X154115077Y-103629616D01*
X154025613Y-103577964D01*
X153910425Y-103547100D01*
X153791175Y-103547100D01*
X153791173Y-103547100D01*
X153771385Y-103552401D01*
X153720141Y-103547914D01*
X153698752Y-103532936D01*
X152056329Y-101890511D01*
X151985411Y-101861137D01*
X151985411Y-101861136D01*
X151985409Y-101861136D01*
X151974458Y-101856600D01*
X151974456Y-101856600D01*
X149573390Y-101856600D01*
X149525052Y-101839007D01*
X149520216Y-101834574D01*
X148665426Y-100979783D01*
X148643686Y-100933163D01*
X148643400Y-100926609D01*
X148643400Y-94513197D01*
X148660993Y-94464859D01*
X148705542Y-94439139D01*
X148727268Y-94438498D01*
X148740211Y-94439999D01*
X148784999Y-94439998D01*
X148785000Y-94439998D01*
X148785000Y-93209999D01*
X148740215Y-93210000D01*
X148715124Y-93212910D01*
X148612520Y-93258214D01*
X148612517Y-93258216D01*
X148535660Y-93335074D01*
X148489040Y-93356814D01*
X148482487Y-93357100D01*
X148369944Y-93357100D01*
X148369942Y-93357101D01*
X148337866Y-93363480D01*
X148325342Y-93365972D01*
X148325341Y-93365972D01*
X148318078Y-93367417D01*
X148317604Y-93365038D01*
X148282086Y-93366583D01*
X148281921Y-93367417D01*
X148278514Y-93366739D01*
X148277375Y-93366789D01*
X148275702Y-93366179D01*
X148230057Y-93357100D01*
X148117514Y-93357100D01*
X148069176Y-93339507D01*
X148064340Y-93335074D01*
X147987482Y-93258216D01*
X147987477Y-93258213D01*
X147884874Y-93212910D01*
X147884873Y-93212909D01*
X147859791Y-93210000D01*
X147815000Y-93210000D01*
X147815000Y-94439999D01*
X147859787Y-94439999D01*
X147872734Y-94438497D01*
X147922777Y-94450403D01*
X147953459Y-94491690D01*
X147956600Y-94513196D01*
X147956600Y-101194285D01*
X147966532Y-101218263D01*
X147990511Y-101276155D01*
X149161186Y-102446828D01*
X149223846Y-102509488D01*
X149305716Y-102543400D01*
X149305717Y-102543400D01*
X149394331Y-102543400D01*
X151706785Y-102543400D01*
X151755123Y-102560993D01*
X151759959Y-102565426D01*
X152705850Y-103511317D01*
X152727590Y-103557937D01*
X152714276Y-103607624D01*
X152672139Y-103637129D01*
X152620895Y-103632645D01*
X152615076Y-103629616D01*
X152525613Y-103577964D01*
X152410425Y-103547100D01*
X152291175Y-103547100D01*
X152271388Y-103552401D01*
X152220144Y-103547916D01*
X152198754Y-103532937D01*
X151456329Y-102790511D01*
X151398436Y-102766532D01*
X151398435Y-102766531D01*
X151374459Y-102756600D01*
X151374458Y-102756600D01*
X148373390Y-102756600D01*
X148325052Y-102739007D01*
X148320216Y-102734574D01*
X147465426Y-101879783D01*
X147443686Y-101833163D01*
X147443400Y-101826609D01*
X147443400Y-94513197D01*
X147460993Y-94464859D01*
X147505542Y-94439139D01*
X147527268Y-94438498D01*
X147540211Y-94439999D01*
X147584999Y-94439998D01*
X147585000Y-94439998D01*
X147585000Y-93209999D01*
X147540215Y-93210000D01*
X147515124Y-93212910D01*
X147412520Y-93258214D01*
X147412517Y-93258216D01*
X147335660Y-93335074D01*
X147289040Y-93356814D01*
X147282487Y-93357100D01*
X147169944Y-93357100D01*
X147169942Y-93357101D01*
X147137866Y-93363480D01*
X147125342Y-93365972D01*
X147125341Y-93365972D01*
X147118078Y-93367417D01*
X147117604Y-93365038D01*
X147082086Y-93366583D01*
X147081921Y-93367417D01*
X147078514Y-93366739D01*
X147077375Y-93366789D01*
X147075702Y-93366179D01*
X147030057Y-93357100D01*
X146917514Y-93357100D01*
X146869176Y-93339507D01*
X146864340Y-93335074D01*
X146787482Y-93258216D01*
X146787477Y-93258213D01*
X146684874Y-93212910D01*
X146684873Y-93212909D01*
X146659791Y-93210000D01*
X146615000Y-93210000D01*
X146615000Y-94439999D01*
X146659787Y-94439999D01*
X146672734Y-94438497D01*
X146722777Y-94450403D01*
X146753459Y-94491690D01*
X146756600Y-94513196D01*
X146756600Y-95177608D01*
X146739007Y-95225946D01*
X146694458Y-95251666D01*
X146643800Y-95242733D01*
X146616275Y-95215208D01*
X146562410Y-95121912D01*
X146478087Y-95037589D01*
X146370545Y-94975500D01*
X146371224Y-94974322D01*
X146337594Y-94943500D01*
X146329100Y-94908782D01*
X146329100Y-94515198D01*
X146346693Y-94466860D01*
X146373773Y-94451225D01*
X146385000Y-94439998D01*
X146385000Y-93209999D01*
X146340215Y-93210000D01*
X146315124Y-93212910D01*
X146212520Y-93258214D01*
X146212517Y-93258216D01*
X146135660Y-93335074D01*
X146089040Y-93356814D01*
X146082487Y-93357100D01*
X145969944Y-93357100D01*
X145969942Y-93357101D01*
X145937866Y-93363480D01*
X145925342Y-93365972D01*
X145925341Y-93365972D01*
X145918078Y-93367417D01*
X145917604Y-93365038D01*
X145882086Y-93366583D01*
X145881921Y-93367417D01*
X145878514Y-93366739D01*
X145877375Y-93366789D01*
X145875702Y-93366179D01*
X145830057Y-93357100D01*
X145569944Y-93357100D01*
X145569942Y-93357101D01*
X145525340Y-93365972D01*
X145474767Y-93399764D01*
X145440972Y-93450342D01*
X145440971Y-93450343D01*
X145432100Y-93494942D01*
X145432100Y-94155055D01*
X145432101Y-94155056D01*
X145440972Y-94199658D01*
X145458227Y-94225482D01*
X145461247Y-94235439D01*
X145466365Y-94241538D01*
X145470900Y-94267258D01*
X145470900Y-94308782D01*
X145453307Y-94357120D01*
X145429094Y-94374874D01*
X145429455Y-94375500D01*
X145321912Y-94437589D01*
X145237589Y-94521912D01*
X145177964Y-94625185D01*
X145177964Y-94625186D01*
X145177964Y-94625187D01*
X145147100Y-94740375D01*
X137750000Y-94740375D01*
X137750000Y-93787060D01*
X137767593Y-93738722D01*
X137772080Y-93733831D01*
X138141626Y-93365038D01*
X140086257Y-91424370D01*
X140119914Y-91404964D01*
X140144408Y-91398401D01*
X140144412Y-91398400D01*
X140144412Y-91398399D01*
X140144419Y-91398398D01*
X140386697Y-91298043D01*
X140613803Y-91166924D01*
X140821851Y-91007282D01*
X140984191Y-90844942D01*
X145432100Y-90844942D01*
X145432100Y-91505055D01*
X145432101Y-91505057D01*
X145440972Y-91549659D01*
X145474764Y-91600232D01*
X145474765Y-91600232D01*
X145474766Y-91600234D01*
X145525342Y-91634028D01*
X145569943Y-91642900D01*
X145830056Y-91642899D01*
X145874658Y-91634028D01*
X145874658Y-91634027D01*
X145881923Y-91632583D01*
X145882396Y-91634964D01*
X145917912Y-91633411D01*
X145918077Y-91632583D01*
X145921461Y-91633256D01*
X145922609Y-91633206D01*
X145924295Y-91633820D01*
X145930047Y-91634964D01*
X145969943Y-91642900D01*
X146230056Y-91642899D01*
X146274658Y-91634028D01*
X146274658Y-91634027D01*
X146281923Y-91632583D01*
X146282178Y-91633869D01*
X146307937Y-91630147D01*
X146321724Y-91631610D01*
X146325342Y-91634028D01*
X146369943Y-91642900D01*
X146428077Y-91642899D01*
X146432028Y-91643319D01*
X146451772Y-91652974D01*
X146472427Y-91660492D01*
X146474505Y-91664091D01*
X146478238Y-91665917D01*
X146487155Y-91686001D01*
X146498147Y-91705039D01*
X146497425Y-91709132D01*
X146499112Y-91712931D01*
X146493032Y-91734050D01*
X146489215Y-91755698D01*
X146477964Y-91775187D01*
X146447100Y-91890375D01*
X146447100Y-92009625D01*
X146477964Y-92124813D01*
X146477964Y-92124814D01*
X146537589Y-92228087D01*
X146621912Y-92312410D01*
X146681538Y-92346834D01*
X146725187Y-92372036D01*
X146840375Y-92402900D01*
X146840378Y-92402900D01*
X146959622Y-92402900D01*
X146959625Y-92402900D01*
X147074813Y-92372036D01*
X147178087Y-92312410D01*
X147262410Y-92228087D01*
X147322036Y-92124813D01*
X147352900Y-92009625D01*
X147352900Y-91890375D01*
X147340386Y-91843672D01*
X147344870Y-91792431D01*
X147381243Y-91756058D01*
X147432487Y-91751574D01*
X147443399Y-91755419D01*
X147515128Y-91787090D01*
X147515126Y-91787090D01*
X147540208Y-91789999D01*
X147584999Y-91789998D01*
X147585000Y-91789998D01*
X147585000Y-90559999D01*
X147572175Y-90547174D01*
X147559077Y-90542407D01*
X147537937Y-90513572D01*
X147536952Y-90511193D01*
X147514399Y-90456743D01*
X147514398Y-90456741D01*
X147438980Y-90381323D01*
X147438960Y-90381306D01*
X147424926Y-90367272D01*
X147403186Y-90320652D01*
X147402900Y-90314098D01*
X147402900Y-90190377D01*
X147402900Y-90190375D01*
X147372036Y-90075187D01*
X147341278Y-90021913D01*
X147312410Y-89971912D01*
X147228087Y-89887589D01*
X147124813Y-89827964D01*
X147009625Y-89797100D01*
X146890375Y-89797100D01*
X146803984Y-89820248D01*
X146775186Y-89827964D01*
X146775185Y-89827964D01*
X146671912Y-89887589D01*
X146587589Y-89971912D01*
X146527964Y-90075185D01*
X146527964Y-90075186D01*
X146527964Y-90075187D01*
X146497100Y-90190375D01*
X146497100Y-90190377D01*
X146497100Y-90314097D01*
X146479507Y-90362435D01*
X146475084Y-90367260D01*
X146385604Y-90456741D01*
X146359380Y-90482965D01*
X146359337Y-90483005D01*
X146285604Y-90556738D01*
X146285600Y-90556744D01*
X146275891Y-90580184D01*
X146275853Y-90580278D01*
X146275774Y-90580469D01*
X146247099Y-90649695D01*
X146247099Y-90651610D01*
X146243711Y-90660015D01*
X146230940Y-90674220D01*
X146221028Y-90690553D01*
X146214055Y-90693004D01*
X146209322Y-90698270D01*
X146192193Y-90700690D01*
X146173965Y-90707100D01*
X145969944Y-90707100D01*
X145969942Y-90707101D01*
X145937866Y-90713480D01*
X145925342Y-90715972D01*
X145925341Y-90715972D01*
X145918078Y-90717417D01*
X145917604Y-90715038D01*
X145882086Y-90716583D01*
X145881921Y-90717417D01*
X145878514Y-90716739D01*
X145877375Y-90716789D01*
X145875702Y-90716179D01*
X145830057Y-90707100D01*
X145569944Y-90707100D01*
X145569942Y-90707101D01*
X145525340Y-90715972D01*
X145474767Y-90749764D01*
X145440972Y-90800342D01*
X145440971Y-90800343D01*
X145432100Y-90844942D01*
X140984191Y-90844942D01*
X141007282Y-90821851D01*
X141166924Y-90613803D01*
X141298043Y-90386697D01*
X141398398Y-90144419D01*
X141403967Y-90123632D01*
X141423480Y-90089873D01*
X143733774Y-87784289D01*
X143780415Y-87762599D01*
X143787031Y-87762319D01*
X156721973Y-87788718D01*
G37*
%TD.AperFunction*%
%TD*%
M02*
