%TF.GenerationSoftware,KiCad,Pcbnew,9.0.0*%
%TF.CreationDate,2025-05-23T22:04:32+09:00*%
%TF.ProjectId,imx219_mipi24,696d7832-3139-45f6-9d69-706932342e6b,rev?*%
%TF.SameCoordinates,Original*%
%TF.FileFunction,Legend,Top*%
%TF.FilePolarity,Positive*%
%FSLAX46Y46*%
G04 Gerber Fmt 4.6, Leading zero omitted, Abs format (unit mm)*
G04 Created by KiCad (PCBNEW 9.0.0) date 2025-05-23 22:04:32*
%MOMM*%
%LPD*%
G01*
G04 APERTURE LIST*
%ADD10C,0.150000*%
%ADD11C,0.127000*%
%ADD12C,0.100000*%
G04 APERTURE END LIST*
D10*
X159391792Y-109930180D02*
X159725125Y-110406371D01*
X159963220Y-109930180D02*
X159963220Y-110930180D01*
X159963220Y-110930180D02*
X159582268Y-110930180D01*
X159582268Y-110930180D02*
X159487030Y-110882561D01*
X159487030Y-110882561D02*
X159439411Y-110834942D01*
X159439411Y-110834942D02*
X159391792Y-110739704D01*
X159391792Y-110739704D02*
X159391792Y-110596847D01*
X159391792Y-110596847D02*
X159439411Y-110501609D01*
X159439411Y-110501609D02*
X159487030Y-110453990D01*
X159487030Y-110453990D02*
X159582268Y-110406371D01*
X159582268Y-110406371D02*
X159963220Y-110406371D01*
X159106077Y-110930180D02*
X158534649Y-110930180D01*
X158820363Y-109930180D02*
X158820363Y-110930180D01*
X157629887Y-110025419D02*
X157677506Y-109977800D01*
X157677506Y-109977800D02*
X157820363Y-109930180D01*
X157820363Y-109930180D02*
X157915601Y-109930180D01*
X157915601Y-109930180D02*
X158058458Y-109977800D01*
X158058458Y-109977800D02*
X158153696Y-110073038D01*
X158153696Y-110073038D02*
X158201315Y-110168276D01*
X158201315Y-110168276D02*
X158248934Y-110358752D01*
X158248934Y-110358752D02*
X158248934Y-110501609D01*
X158248934Y-110501609D02*
X158201315Y-110692085D01*
X158201315Y-110692085D02*
X158153696Y-110787323D01*
X158153696Y-110787323D02*
X158058458Y-110882561D01*
X158058458Y-110882561D02*
X157915601Y-110930180D01*
X157915601Y-110930180D02*
X157820363Y-110930180D01*
X157820363Y-110930180D02*
X157677506Y-110882561D01*
X157677506Y-110882561D02*
X157629887Y-110834942D01*
X156725125Y-109930180D02*
X157201315Y-109930180D01*
X157201315Y-109930180D02*
X157201315Y-110930180D01*
X156391791Y-110311133D02*
X155629887Y-110311133D01*
X155153696Y-109930180D02*
X155153696Y-110930180D01*
X154677506Y-109930180D02*
X154677506Y-110930180D01*
X154677506Y-110930180D02*
X154344173Y-110215895D01*
X154344173Y-110215895D02*
X154010840Y-110930180D01*
X154010840Y-110930180D02*
X154010840Y-109930180D01*
X153629887Y-110930180D02*
X152963221Y-109930180D01*
X152963221Y-110930180D02*
X153629887Y-109930180D01*
X152629887Y-110834942D02*
X152582268Y-110882561D01*
X152582268Y-110882561D02*
X152487030Y-110930180D01*
X152487030Y-110930180D02*
X152248935Y-110930180D01*
X152248935Y-110930180D02*
X152153697Y-110882561D01*
X152153697Y-110882561D02*
X152106078Y-110834942D01*
X152106078Y-110834942D02*
X152058459Y-110739704D01*
X152058459Y-110739704D02*
X152058459Y-110644466D01*
X152058459Y-110644466D02*
X152106078Y-110501609D01*
X152106078Y-110501609D02*
X152677506Y-109930180D01*
X152677506Y-109930180D02*
X152058459Y-109930180D01*
X151106078Y-109930180D02*
X151677506Y-109930180D01*
X151391792Y-109930180D02*
X151391792Y-110930180D01*
X151391792Y-110930180D02*
X151487030Y-110787323D01*
X151487030Y-110787323D02*
X151582268Y-110692085D01*
X151582268Y-110692085D02*
X151677506Y-110644466D01*
X150629887Y-109930180D02*
X150439411Y-109930180D01*
X150439411Y-109930180D02*
X150344173Y-109977800D01*
X150344173Y-109977800D02*
X150296554Y-110025419D01*
X150296554Y-110025419D02*
X150201316Y-110168276D01*
X150201316Y-110168276D02*
X150153697Y-110358752D01*
X150153697Y-110358752D02*
X150153697Y-110739704D01*
X150153697Y-110739704D02*
X150201316Y-110834942D01*
X150201316Y-110834942D02*
X150248935Y-110882561D01*
X150248935Y-110882561D02*
X150344173Y-110930180D01*
X150344173Y-110930180D02*
X150534649Y-110930180D01*
X150534649Y-110930180D02*
X150629887Y-110882561D01*
X150629887Y-110882561D02*
X150677506Y-110834942D01*
X150677506Y-110834942D02*
X150725125Y-110739704D01*
X150725125Y-110739704D02*
X150725125Y-110501609D01*
X150725125Y-110501609D02*
X150677506Y-110406371D01*
X150677506Y-110406371D02*
X150629887Y-110358752D01*
X150629887Y-110358752D02*
X150534649Y-110311133D01*
X150534649Y-110311133D02*
X150344173Y-110311133D01*
X150344173Y-110311133D02*
X150248935Y-110358752D01*
X150248935Y-110358752D02*
X150201316Y-110406371D01*
X150201316Y-110406371D02*
X150153697Y-110501609D01*
X149725125Y-110311133D02*
X148963221Y-110311133D01*
X148487030Y-109930180D02*
X148487030Y-110930180D01*
X148487030Y-110930180D02*
X148153697Y-110215895D01*
X148153697Y-110215895D02*
X147820364Y-110930180D01*
X147820364Y-110930180D02*
X147820364Y-109930180D01*
X147344173Y-109930180D02*
X147344173Y-110930180D01*
X146867983Y-109930180D02*
X146867983Y-110930180D01*
X146867983Y-110930180D02*
X146487031Y-110930180D01*
X146487031Y-110930180D02*
X146391793Y-110882561D01*
X146391793Y-110882561D02*
X146344174Y-110834942D01*
X146344174Y-110834942D02*
X146296555Y-110739704D01*
X146296555Y-110739704D02*
X146296555Y-110596847D01*
X146296555Y-110596847D02*
X146344174Y-110501609D01*
X146344174Y-110501609D02*
X146391793Y-110453990D01*
X146391793Y-110453990D02*
X146487031Y-110406371D01*
X146487031Y-110406371D02*
X146867983Y-110406371D01*
X145867983Y-109930180D02*
X145867983Y-110930180D01*
X145439412Y-110834942D02*
X145391793Y-110882561D01*
X145391793Y-110882561D02*
X145296555Y-110930180D01*
X145296555Y-110930180D02*
X145058460Y-110930180D01*
X145058460Y-110930180D02*
X144963222Y-110882561D01*
X144963222Y-110882561D02*
X144915603Y-110834942D01*
X144915603Y-110834942D02*
X144867984Y-110739704D01*
X144867984Y-110739704D02*
X144867984Y-110644466D01*
X144867984Y-110644466D02*
X144915603Y-110501609D01*
X144915603Y-110501609D02*
X145487031Y-109930180D01*
X145487031Y-109930180D02*
X144867984Y-109930180D01*
X144010841Y-110596847D02*
X144010841Y-109930180D01*
X144248936Y-110977800D02*
X144487031Y-110263514D01*
X144487031Y-110263514D02*
X143867984Y-110263514D01*
X143487031Y-110311133D02*
X142725127Y-110311133D01*
X142391793Y-110930180D02*
X142058460Y-109930180D01*
X142058460Y-109930180D02*
X141725127Y-110930180D01*
X141439412Y-110834942D02*
X141391793Y-110882561D01*
X141391793Y-110882561D02*
X141296555Y-110930180D01*
X141296555Y-110930180D02*
X141058460Y-110930180D01*
X141058460Y-110930180D02*
X140963222Y-110882561D01*
X140963222Y-110882561D02*
X140915603Y-110834942D01*
X140915603Y-110834942D02*
X140867984Y-110739704D01*
X140867984Y-110739704D02*
X140867984Y-110644466D01*
X140867984Y-110644466D02*
X140915603Y-110501609D01*
X140915603Y-110501609D02*
X141487031Y-109930180D01*
X141487031Y-109930180D02*
X140867984Y-109930180D01*
X142754819Y-92933333D02*
X143469104Y-92933333D01*
X143469104Y-92933333D02*
X143611961Y-92980952D01*
X143611961Y-92980952D02*
X143707200Y-93076190D01*
X143707200Y-93076190D02*
X143754819Y-93219047D01*
X143754819Y-93219047D02*
X143754819Y-93314285D01*
X143754819Y-91933333D02*
X143754819Y-92504761D01*
X143754819Y-92219047D02*
X142754819Y-92219047D01*
X142754819Y-92219047D02*
X142897676Y-92314285D01*
X142897676Y-92314285D02*
X142992914Y-92409523D01*
X142992914Y-92409523D02*
X143040533Y-92504761D01*
D11*
%TO.C,J1*%
X144390000Y-93660000D02*
X144390000Y-91340000D01*
X145265000Y-91340000D02*
X144390000Y-91340000D01*
X145265000Y-93660000D02*
X144390000Y-93660000D01*
X151735000Y-91340000D02*
X152610000Y-91340000D01*
X152610000Y-91340000D02*
X152610000Y-93660000D01*
X152610000Y-93660000D02*
X151735000Y-93660000D01*
D12*
X145750000Y-90286000D02*
G75*
G02*
X145650000Y-90286000I-50000J0D01*
G01*
X145650000Y-90286000D02*
G75*
G02*
X145750000Y-90286000I50000J0D01*
G01*
%TD*%
M02*
