%TF.GenerationSoftware,KiCad,Pcbnew,9.0.0*%
%TF.CreationDate,2025-03-16T17:44:07+09:00*%
%TF.ProjectId,imx219_mipi24,696d7832-3139-45f6-9d69-706932342e6b,rev?*%
%TF.SameCoordinates,Original*%
%TF.FileFunction,Soldermask,Bot*%
%TF.FilePolarity,Negative*%
%FSLAX46Y46*%
G04 Gerber Fmt 4.6, Leading zero omitted, Abs format (unit mm)*
G04 Created by KiCad (PCBNEW 9.0.0) date 2025-03-16 17:44:07*
%MOMM*%
%LPD*%
G01*
G04 APERTURE LIST*
G04 Aperture macros list*
%AMRoundRect*
0 Rectangle with rounded corners*
0 $1 Rounding radius*
0 $2 $3 $4 $5 $6 $7 $8 $9 X,Y pos of 4 corners*
0 Add a 4 corners polygon primitive as box body*
4,1,4,$2,$3,$4,$5,$6,$7,$8,$9,$2,$3,0*
0 Add four circle primitives for the rounded corners*
1,1,$1+$1,$2,$3*
1,1,$1+$1,$4,$5*
1,1,$1+$1,$6,$7*
1,1,$1+$1,$8,$9*
0 Add four rect primitives between the rounded corners*
20,1,$1+$1,$2,$3,$4,$5,0*
20,1,$1+$1,$4,$5,$6,$7,0*
20,1,$1+$1,$6,$7,$8,$9,0*
20,1,$1+$1,$8,$9,$2,$3,0*%
G04 Aperture macros list end*
%ADD10C,2.000000*%
%ADD11RoundRect,0.135000X0.135000X0.185000X-0.135000X0.185000X-0.135000X-0.185000X0.135000X-0.185000X0*%
%ADD12RoundRect,0.150000X0.150000X-0.512500X0.150000X0.512500X-0.150000X0.512500X-0.150000X-0.512500X0*%
%ADD13RoundRect,0.140000X0.140000X0.170000X-0.140000X0.170000X-0.140000X-0.170000X0.140000X-0.170000X0*%
%ADD14RoundRect,0.135000X0.185000X-0.135000X0.185000X0.135000X-0.185000X0.135000X-0.185000X-0.135000X0*%
%ADD15R,0.330200X0.609600*%
%ADD16RoundRect,0.218750X-0.256250X0.218750X-0.256250X-0.218750X0.256250X-0.218750X0.256250X0.218750X0*%
%ADD17R,0.500000X1.005599*%
%ADD18R,0.800000X2.000000*%
%ADD19R,0.300000X0.850000*%
%ADD20RoundRect,0.140000X-0.170000X0.140000X-0.170000X-0.140000X0.170000X-0.140000X0.170000X0.140000X0*%
%ADD21RoundRect,0.225000X0.250000X-0.225000X0.250000X0.225000X-0.250000X0.225000X-0.250000X-0.225000X0*%
%ADD22R,0.900000X1.100000*%
%ADD23RoundRect,0.225000X0.225000X0.250000X-0.225000X0.250000X-0.225000X-0.250000X0.225000X-0.250000X0*%
%ADD24RoundRect,0.218750X0.218750X0.256250X-0.218750X0.256250X-0.218750X-0.256250X0.218750X-0.256250X0*%
%ADD25RoundRect,0.250000X-0.375000X-0.850000X0.375000X-0.850000X0.375000X0.850000X-0.375000X0.850000X0*%
%ADD26RoundRect,0.150000X-0.512500X-0.150000X0.512500X-0.150000X0.512500X0.150000X-0.512500X0.150000X0*%
G04 APERTURE END LIST*
D10*
%TO.C,*%
X160500000Y-102500000D03*
%TD*%
%TO.C,*%
X160500000Y-89500000D03*
%TD*%
%TO.C,REF\u002A\u002A*%
X139500000Y-89500000D03*
%TD*%
%TO.C,*%
X139500000Y-102500000D03*
%TD*%
D11*
%TO.C,R1*%
X149910000Y-92050000D03*
X148890000Y-92050000D03*
%TD*%
D12*
%TO.C,U1*%
X159200000Y-98137500D03*
X158250000Y-98137500D03*
X157300000Y-98137500D03*
X157300000Y-95862500D03*
X159200000Y-95862500D03*
%TD*%
D13*
%TO.C,C2*%
X146880000Y-89250000D03*
X145920000Y-89250000D03*
%TD*%
D14*
%TO.C,R3*%
X140800000Y-106710000D03*
X140800000Y-105690000D03*
%TD*%
D15*
%TO.C,FL4*%
X148750000Y-105144400D03*
X148750000Y-105855600D03*
X149250000Y-105855600D03*
X149250000Y-105144400D03*
%TD*%
D16*
%TO.C,FB2*%
X144000000Y-101362500D03*
X144000000Y-102937500D03*
%TD*%
D15*
%TO.C,FL5*%
X150250000Y-105144400D03*
X150250000Y-105855600D03*
X150750000Y-105855600D03*
X150750000Y-105144400D03*
%TD*%
D17*
%TO.C,U2*%
X154150001Y-98352799D03*
X153200000Y-98352799D03*
X152249999Y-98352799D03*
X152249999Y-95647201D03*
X154150001Y-95647201D03*
%TD*%
D18*
%TO.C,J2*%
X157450000Y-110300000D03*
X142550000Y-110300000D03*
D19*
X155750000Y-107125000D03*
X155250000Y-107125000D03*
X154750000Y-107125000D03*
X154250000Y-107125000D03*
X153750000Y-107125000D03*
X153250000Y-107125000D03*
X152750000Y-107125000D03*
X152250000Y-107125000D03*
X151750000Y-107125000D03*
X151250000Y-107125000D03*
X150750000Y-107125000D03*
X150250000Y-107125000D03*
X149750000Y-107125000D03*
X149250000Y-107125000D03*
X148750000Y-107125000D03*
X148250000Y-107125000D03*
X147750000Y-107125000D03*
X147250000Y-107125000D03*
X146750000Y-107125000D03*
X146250000Y-107125000D03*
X145750000Y-107125000D03*
X145250000Y-107125000D03*
X144750000Y-107125000D03*
X144250000Y-107125000D03*
%TD*%
D20*
%TO.C,C8*%
X154550000Y-90570000D03*
X154550000Y-91530000D03*
%TD*%
D15*
%TO.C,FL2*%
X153250000Y-105144400D03*
X153250000Y-105855600D03*
X153750000Y-105855600D03*
X153750000Y-105144400D03*
%TD*%
D11*
%TO.C,R2*%
X149910000Y-93200000D03*
X148890000Y-93200000D03*
%TD*%
D13*
%TO.C,C4*%
X159300000Y-99600000D03*
X158340000Y-99600000D03*
%TD*%
D21*
%TO.C,C10*%
X138700000Y-98575000D03*
X138700000Y-97025000D03*
%TD*%
D15*
%TO.C,FL1*%
X151750000Y-105144400D03*
X151750000Y-105855600D03*
X152250000Y-105855600D03*
X152250000Y-105144400D03*
%TD*%
D13*
%TO.C,C1*%
X149380000Y-89300000D03*
X148420000Y-89300000D03*
%TD*%
%TO.C,C12*%
X157230000Y-94250000D03*
X156270000Y-94250000D03*
%TD*%
D22*
%TO.C,X1*%
X153050000Y-90250000D03*
X153050000Y-91950000D03*
X151750000Y-91950000D03*
X151750000Y-90250000D03*
%TD*%
D23*
%TO.C,C11*%
X146225000Y-97050000D03*
X144675000Y-97050000D03*
%TD*%
D13*
%TO.C,C9*%
X144780000Y-105900000D03*
X143820000Y-105900000D03*
%TD*%
D24*
%TO.C,FB1*%
X156600000Y-101200000D03*
X155025000Y-101200000D03*
%TD*%
D13*
%TO.C,C6*%
X159230000Y-94250000D03*
X158270000Y-94250000D03*
%TD*%
D15*
%TO.C,FL3*%
X154750000Y-105144400D03*
X154750000Y-105855600D03*
X155250000Y-105855600D03*
X155250000Y-105144400D03*
%TD*%
D25*
%TO.C,L1*%
X144625000Y-99250000D03*
X146775000Y-99250000D03*
%TD*%
D13*
%TO.C,C3*%
X146280000Y-92300000D03*
X145320000Y-92300000D03*
%TD*%
%TO.C,C7*%
X154080000Y-94250000D03*
X153120000Y-94250000D03*
%TD*%
%TO.C,C5*%
X154080000Y-99600000D03*
X153120000Y-99600000D03*
%TD*%
D26*
%TO.C,U3*%
X140462500Y-98450000D03*
X140462500Y-97500000D03*
X140462500Y-96550000D03*
X142737500Y-96550000D03*
X142737500Y-98450000D03*
%TD*%
M02*
